<?xml version="1.0" encoding="utf-8" standalone="no"?>
<!DOCTYPE svg PUBLIC "-//W3C//DTD SVG 1.1//EN"
  "http://www.w3.org/Graphics/SVG/1.1/DTD/svg11.dtd">
<svg xmlns:xlink="http://www.w3.org/1999/xlink" width="704.223125pt" height="495.594375pt" viewBox="0 0 704.223125 495.594375" xmlns="http://www.w3.org/2000/svg" version="1.1">
 <metadata>
  <rdf:RDF xmlns:dc="http://purl.org/dc/elements/1.1/" xmlns:cc="http://creativecommons.org/ns#" xmlns:rdf="http://www.w3.org/1999/02/22-rdf-syntax-ns#">
   <cc:Work>
    <dc:type rdf:resource="http://purl.org/dc/dcmitype/StillImage"/>
    <dc:date>2026-05-21T10:55:54.379647</dc:date>
    <dc:format>image/svg+xml</dc:format>
    <dc:creator>
     <cc:Agent>
      <dc:title>Matplotlib v3.5.1, https://matplotlib.org/</dc:title>
     </cc:Agent>
    </dc:creator>
   </cc:Work>
  </rdf:RDF>
 </metadata>
 <defs>
  <style type="text/css">*{stroke-linejoin: round; stroke-linecap: butt}</style>
 </defs>
 <g id="figure_1">
  <g id="patch_1">
   <path d="M 0 495.594375 
L 704.223125 495.594375 
L 704.223125 0 
L 0 0 
z
" style="fill: #ffffff"/>
  </g>
  <g id="axes_1">
   <g id="patch_2">
    <path d="M 44.903125 236.808125 
L 697.023125 236.808125 
L 697.023125 29.878125 
L 44.903125 29.878125 
z
" style="fill: #ffffff"/>
   </g>
   <g id="patch_3">
    <path d="M 230.879128 236.808125 
L 230.879128 29.878125 
L 273.180954 29.878125 
L 273.180954 236.808125 
z
" clip-path="url(#pd36d82ac55)" style="fill: #fadbd8; opacity: 0.5; stroke: #fadbd8; stroke-linejoin: miter"/>
   </g>
   <g id="patch_4">
    <path d="M 294.201168 236.808125 
L 294.201168 29.878125 
L 493.395023 29.878125 
L 493.395023 236.808125 
z
" clip-path="url(#pd36d82ac55)" style="fill: #fadbd8; opacity: 0.5; stroke: #fadbd8; stroke-linejoin: miter"/>
   </g>
   <g id="patch_5">
    <path d="M 562.256415 236.808125 
L 562.256415 29.878125 
L 644.341413 29.878125 
L 644.341413 236.808125 
z
" clip-path="url(#pd36d82ac55)" style="fill: #f5b7b1; opacity: 0.5; stroke: #f5b7b1; stroke-linejoin: miter"/>
   </g>
   <g id="matplotlib.axis_1">
    <g id="xtick_1">
     <g id="line2d_1">
      <path d="M 44.903125 236.808125 
L 44.903125 29.878125 
" clip-path="url(#pd36d82ac55)" style="fill: none; stroke-dasharray: 2.96,1.28; stroke-dashoffset: 0; stroke: #b0b0b0; stroke-opacity: 0.3; stroke-width: 0.8"/>
     </g>
     <g id="line2d_2">
      <defs>
       <path id="m6b09164885" d="M 0 0 
L 0 3.5 
" style="stroke: #000000; stroke-width: 0.8"/>
      </defs>
      <g>
       <use xlink:href="#m6b09164885" x="44.903125" y="236.808125" style="stroke: #000000; stroke-width: 0.8"/>
      </g>
     </g>
    </g>
    <g id="xtick_2">
     <g id="line2d_3">
      <path d="M 120.159683 236.808125 
L 120.159683 29.878125 
" clip-path="url(#pd36d82ac55)" style="fill: none; stroke-dasharray: 2.96,1.28; stroke-dashoffset: 0; stroke: #b0b0b0; stroke-opacity: 0.3; stroke-width: 0.8"/>
     </g>
     <g id="line2d_4">
      <g>
       <use xlink:href="#m6b09164885" x="120.159683" y="236.808125" style="stroke: #000000; stroke-width: 0.8"/>
      </g>
     </g>
    </g>
    <g id="xtick_3">
     <g id="line2d_5">
      <path d="M 195.416241 236.808125 
L 195.416241 29.878125 
" clip-path="url(#pd36d82ac55)" style="fill: none; stroke-dasharray: 2.96,1.28; stroke-dashoffset: 0; stroke: #b0b0b0; stroke-opacity: 0.3; stroke-width: 0.8"/>
     </g>
     <g id="line2d_6">
      <g>
       <use xlink:href="#m6b09164885" x="195.416241" y="236.808125" style="stroke: #000000; stroke-width: 0.8"/>
      </g>
     </g>
    </g>
    <g id="xtick_4">
     <g id="line2d_7">
      <path d="M 270.672799 236.808125 
L 270.672799 29.878125 
" clip-path="url(#pd36d82ac55)" style="fill: none; stroke-dasharray: 2.96,1.28; stroke-dashoffset: 0; stroke: #b0b0b0; stroke-opacity: 0.3; stroke-width: 0.8"/>
     </g>
     <g id="line2d_8">
      <g>
       <use xlink:href="#m6b09164885" x="270.672799" y="236.808125" style="stroke: #000000; stroke-width: 0.8"/>
      </g>
     </g>
    </g>
    <g id="xtick_5">
     <g id="line2d_9">
      <path d="M 345.929357 236.808125 
L 345.929357 29.878125 
" clip-path="url(#pd36d82ac55)" style="fill: none; stroke-dasharray: 2.96,1.28; stroke-dashoffset: 0; stroke: #b0b0b0; stroke-opacity: 0.3; stroke-width: 0.8"/>
     </g>
     <g id="line2d_10">
      <g>
       <use xlink:href="#m6b09164885" x="345.929357" y="236.808125" style="stroke: #000000; stroke-width: 0.8"/>
      </g>
     </g>
    </g>
    <g id="xtick_6">
     <g id="line2d_11">
      <path d="M 421.185915 236.808125 
L 421.185915 29.878125 
" clip-path="url(#pd36d82ac55)" style="fill: none; stroke-dasharray: 2.96,1.28; stroke-dashoffset: 0; stroke: #b0b0b0; stroke-opacity: 0.3; stroke-width: 0.8"/>
     </g>
     <g id="line2d_12">
      <g>
       <use xlink:href="#m6b09164885" x="421.185915" y="236.808125" style="stroke: #000000; stroke-width: 0.8"/>
      </g>
     </g>
    </g>
    <g id="xtick_7">
     <g id="line2d_13">
      <path d="M 496.442473 236.808125 
L 496.442473 29.878125 
" clip-path="url(#pd36d82ac55)" style="fill: none; stroke-dasharray: 2.96,1.28; stroke-dashoffset: 0; stroke: #b0b0b0; stroke-opacity: 0.3; stroke-width: 0.8"/>
     </g>
     <g id="line2d_14">
      <g>
       <use xlink:href="#m6b09164885" x="496.442473" y="236.808125" style="stroke: #000000; stroke-width: 0.8"/>
      </g>
     </g>
    </g>
    <g id="xtick_8">
     <g id="line2d_15">
      <path d="M 571.699031 236.808125 
L 571.699031 29.878125 
" clip-path="url(#pd36d82ac55)" style="fill: none; stroke-dasharray: 2.96,1.28; stroke-dashoffset: 0; stroke: #b0b0b0; stroke-opacity: 0.3; stroke-width: 0.8"/>
     </g>
     <g id="line2d_16">
      <g>
       <use xlink:href="#m6b09164885" x="571.699031" y="236.808125" style="stroke: #000000; stroke-width: 0.8"/>
      </g>
     </g>
    </g>
    <g id="xtick_9">
     <g id="line2d_17">
      <path d="M 646.955589 236.808125 
L 646.955589 29.878125 
" clip-path="url(#pd36d82ac55)" style="fill: none; stroke-dasharray: 2.96,1.28; stroke-dashoffset: 0; stroke: #b0b0b0; stroke-opacity: 0.3; stroke-width: 0.8"/>
     </g>
     <g id="line2d_18">
      <g>
       <use xlink:href="#m6b09164885" x="646.955589" y="236.808125" style="stroke: #000000; stroke-width: 0.8"/>
      </g>
     </g>
    </g>
   </g>
   <g id="matplotlib.axis_2">
    <g id="ytick_1">
     <g id="line2d_19">
      <path d="M 44.903125 225.922716 
L 697.023125 225.922716 
" clip-path="url(#pd36d82ac55)" style="fill: none; stroke-dasharray: 2.96,1.28; stroke-dashoffset: 0; stroke: #b0b0b0; stroke-opacity: 0.3; stroke-width: 0.8"/>
     </g>
     <g id="line2d_20">
      <defs>
       <path id="m0752517577" d="M 0 0 
L -3.5 0 
" style="stroke: #000000; stroke-width: 0.8"/>
      </defs>
      <g>
       <use xlink:href="#m0752517577" x="44.903125" y="225.922716" style="stroke: #000000; stroke-width: 0.8"/>
      </g>
     </g>
     <g id="text_1">
      <!-- 0.4 -->
      <g transform="translate(22 229.721934)scale(0.1 -0.1)">
       <defs>
        <path id="DejaVuSans-30" d="M 2034 4250 
Q 1547 4250 1301 3770 
Q 1056 3291 1056 2328 
Q 1056 1369 1301 889 
Q 1547 409 2034 409 
Q 2525 409 2770 889 
Q 3016 1369 3016 2328 
Q 3016 3291 2770 3770 
Q 2525 4250 2034 4250 
z
M 2034 4750 
Q 2819 4750 3233 4129 
Q 3647 3509 3647 2328 
Q 3647 1150 3233 529 
Q 2819 -91 2034 -91 
Q 1250 -91 836 529 
Q 422 1150 422 2328 
Q 422 3509 836 4129 
Q 1250 4750 2034 4750 
z
" transform="scale(0.015625)"/>
        <path id="DejaVuSans-2e" d="M 684 794 
L 1344 794 
L 1344 0 
L 684 0 
L 684 794 
z
" transform="scale(0.015625)"/>
        <path id="DejaVuSans-34" d="M 2419 4116 
L 825 1625 
L 2419 1625 
L 2419 4116 
z
M 2253 4666 
L 3047 4666 
L 3047 1625 
L 3713 1625 
L 3713 1100 
L 3047 1100 
L 3047 0 
L 2419 0 
L 2419 1100 
L 313 1100 
L 313 1709 
L 2253 4666 
z
" transform="scale(0.015625)"/>
       </defs>
       <use xlink:href="#DejaVuSans-30"/>
       <use xlink:href="#DejaVuSans-2e" x="63.623047"/>
       <use xlink:href="#DejaVuSans-34" x="95.410156"/>
      </g>
     </g>
    </g>
    <g id="ytick_2">
     <g id="line2d_21">
      <path d="M 44.903125 202.59288 
L 697.023125 202.59288 
" clip-path="url(#pd36d82ac55)" style="fill: none; stroke-dasharray: 2.96,1.28; stroke-dashoffset: 0; stroke: #b0b0b0; stroke-opacity: 0.3; stroke-width: 0.8"/>
     </g>
     <g id="line2d_22">
      <g>
       <use xlink:href="#m0752517577" x="44.903125" y="202.59288" style="stroke: #000000; stroke-width: 0.8"/>
      </g>
     </g>
     <g id="text_2">
      <!-- 0.6 -->
      <g transform="translate(22 206.392099)scale(0.1 -0.1)">
       <defs>
        <path id="DejaVuSans-36" d="M 2113 2584 
Q 1688 2584 1439 2293 
Q 1191 2003 1191 1497 
Q 1191 994 1439 701 
Q 1688 409 2113 409 
Q 2538 409 2786 701 
Q 3034 994 3034 1497 
Q 3034 2003 2786 2293 
Q 2538 2584 2113 2584 
z
M 3366 4563 
L 3366 3988 
Q 3128 4100 2886 4159 
Q 2644 4219 2406 4219 
Q 1781 4219 1451 3797 
Q 1122 3375 1075 2522 
Q 1259 2794 1537 2939 
Q 1816 3084 2150 3084 
Q 2853 3084 3261 2657 
Q 3669 2231 3669 1497 
Q 3669 778 3244 343 
Q 2819 -91 2113 -91 
Q 1303 -91 875 529 
Q 447 1150 447 2328 
Q 447 3434 972 4092 
Q 1497 4750 2381 4750 
Q 2619 4750 2861 4703 
Q 3103 4656 3366 4563 
z
" transform="scale(0.015625)"/>
       </defs>
       <use xlink:href="#DejaVuSans-30"/>
       <use xlink:href="#DejaVuSans-2e" x="63.623047"/>
       <use xlink:href="#DejaVuSans-36" x="95.410156"/>
      </g>
     </g>
    </g>
    <g id="ytick_3">
     <g id="line2d_23">
      <path d="M 44.903125 179.263045 
L 697.023125 179.263045 
" clip-path="url(#pd36d82ac55)" style="fill: none; stroke-dasharray: 2.96,1.28; stroke-dashoffset: 0; stroke: #b0b0b0; stroke-opacity: 0.3; stroke-width: 0.8"/>
     </g>
     <g id="line2d_24">
      <g>
       <use xlink:href="#m0752517577" x="44.903125" y="179.263045" style="stroke: #000000; stroke-width: 0.8"/>
      </g>
     </g>
     <g id="text_3">
      <!-- 0.8 -->
      <g transform="translate(22 183.062264)scale(0.1 -0.1)">
       <defs>
        <path id="DejaVuSans-38" d="M 2034 2216 
Q 1584 2216 1326 1975 
Q 1069 1734 1069 1313 
Q 1069 891 1326 650 
Q 1584 409 2034 409 
Q 2484 409 2743 651 
Q 3003 894 3003 1313 
Q 3003 1734 2745 1975 
Q 2488 2216 2034 2216 
z
M 1403 2484 
Q 997 2584 770 2862 
Q 544 3141 544 3541 
Q 544 4100 942 4425 
Q 1341 4750 2034 4750 
Q 2731 4750 3128 4425 
Q 3525 4100 3525 3541 
Q 3525 3141 3298 2862 
Q 3072 2584 2669 2484 
Q 3125 2378 3379 2068 
Q 3634 1759 3634 1313 
Q 3634 634 3220 271 
Q 2806 -91 2034 -91 
Q 1263 -91 848 271 
Q 434 634 434 1313 
Q 434 1759 690 2068 
Q 947 2378 1403 2484 
z
M 1172 3481 
Q 1172 3119 1398 2916 
Q 1625 2713 2034 2713 
Q 2441 2713 2670 2916 
Q 2900 3119 2900 3481 
Q 2900 3844 2670 4047 
Q 2441 4250 2034 4250 
Q 1625 4250 1398 4047 
Q 1172 3844 1172 3481 
z
" transform="scale(0.015625)"/>
       </defs>
       <use xlink:href="#DejaVuSans-30"/>
       <use xlink:href="#DejaVuSans-2e" x="63.623047"/>
       <use xlink:href="#DejaVuSans-38" x="95.410156"/>
      </g>
     </g>
    </g>
    <g id="ytick_4">
     <g id="line2d_25">
      <path d="M 44.903125 155.93321 
L 697.023125 155.93321 
" clip-path="url(#pd36d82ac55)" style="fill: none; stroke-dasharray: 2.96,1.28; stroke-dashoffset: 0; stroke: #b0b0b0; stroke-opacity: 0.3; stroke-width: 0.8"/>
     </g>
     <g id="line2d_26">
      <g>
       <use xlink:href="#m0752517577" x="44.903125" y="155.93321" style="stroke: #000000; stroke-width: 0.8"/>
      </g>
     </g>
     <g id="text_4">
      <!-- 1.0 -->
      <g transform="translate(22 159.732429)scale(0.1 -0.1)">
       <defs>
        <path id="DejaVuSans-31" d="M 794 531 
L 1825 531 
L 1825 4091 
L 703 3866 
L 703 4441 
L 1819 4666 
L 2450 4666 
L 2450 531 
L 3481 531 
L 3481 0 
L 794 0 
L 794 531 
z
" transform="scale(0.015625)"/>
       </defs>
       <use xlink:href="#DejaVuSans-31"/>
       <use xlink:href="#DejaVuSans-2e" x="63.623047"/>
       <use xlink:href="#DejaVuSans-30" x="95.410156"/>
      </g>
     </g>
    </g>
    <g id="ytick_5">
     <g id="line2d_27">
      <path d="M 44.903125 132.603375 
L 697.023125 132.603375 
" clip-path="url(#pd36d82ac55)" style="fill: none; stroke-dasharray: 2.96,1.28; stroke-dashoffset: 0; stroke: #b0b0b0; stroke-opacity: 0.3; stroke-width: 0.8"/>
     </g>
     <g id="line2d_28">
      <g>
       <use xlink:href="#m0752517577" x="44.903125" y="132.603375" style="stroke: #000000; stroke-width: 0.8"/>
      </g>
     </g>
     <g id="text_5">
      <!-- 1.2 -->
      <g transform="translate(22 136.402594)scale(0.1 -0.1)">
       <defs>
        <path id="DejaVuSans-32" d="M 1228 531 
L 3431 531 
L 3431 0 
L 469 0 
L 469 531 
Q 828 903 1448 1529 
Q 2069 2156 2228 2338 
Q 2531 2678 2651 2914 
Q 2772 3150 2772 3378 
Q 2772 3750 2511 3984 
Q 2250 4219 1831 4219 
Q 1534 4219 1204 4116 
Q 875 4013 500 3803 
L 500 4441 
Q 881 4594 1212 4672 
Q 1544 4750 1819 4750 
Q 2544 4750 2975 4387 
Q 3406 4025 3406 3419 
Q 3406 3131 3298 2873 
Q 3191 2616 2906 2266 
Q 2828 2175 2409 1742 
Q 1991 1309 1228 531 
z
" transform="scale(0.015625)"/>
       </defs>
       <use xlink:href="#DejaVuSans-31"/>
       <use xlink:href="#DejaVuSans-2e" x="63.623047"/>
       <use xlink:href="#DejaVuSans-32" x="95.410156"/>
      </g>
     </g>
    </g>
    <g id="ytick_6">
     <g id="line2d_29">
      <path d="M 44.903125 109.27354 
L 697.023125 109.27354 
" clip-path="url(#pd36d82ac55)" style="fill: none; stroke-dasharray: 2.96,1.28; stroke-dashoffset: 0; stroke: #b0b0b0; stroke-opacity: 0.3; stroke-width: 0.8"/>
     </g>
     <g id="line2d_30">
      <g>
       <use xlink:href="#m0752517577" x="44.903125" y="109.27354" style="stroke: #000000; stroke-width: 0.8"/>
      </g>
     </g>
     <g id="text_6">
      <!-- 1.4 -->
      <g transform="translate(22 113.072758)scale(0.1 -0.1)">
       <use xlink:href="#DejaVuSans-31"/>
       <use xlink:href="#DejaVuSans-2e" x="63.623047"/>
       <use xlink:href="#DejaVuSans-34" x="95.410156"/>
      </g>
     </g>
    </g>
    <g id="ytick_7">
     <g id="line2d_31">
      <path d="M 44.903125 85.943704 
L 697.023125 85.943704 
" clip-path="url(#pd36d82ac55)" style="fill: none; stroke-dasharray: 2.96,1.28; stroke-dashoffset: 0; stroke: #b0b0b0; stroke-opacity: 0.3; stroke-width: 0.8"/>
     </g>
     <g id="line2d_32">
      <g>
       <use xlink:href="#m0752517577" x="44.903125" y="85.943704" style="stroke: #000000; stroke-width: 0.8"/>
      </g>
     </g>
     <g id="text_7">
      <!-- 1.6 -->
      <g transform="translate(22 89.742923)scale(0.1 -0.1)">
       <use xlink:href="#DejaVuSans-31"/>
       <use xlink:href="#DejaVuSans-2e" x="63.623047"/>
       <use xlink:href="#DejaVuSans-36" x="95.410156"/>
      </g>
     </g>
    </g>
    <g id="ytick_8">
     <g id="line2d_33">
      <path d="M 44.903125 62.613869 
L 697.023125 62.613869 
" clip-path="url(#pd36d82ac55)" style="fill: none; stroke-dasharray: 2.96,1.28; stroke-dashoffset: 0; stroke: #b0b0b0; stroke-opacity: 0.3; stroke-width: 0.8"/>
     </g>
     <g id="line2d_34">
      <g>
       <use xlink:href="#m0752517577" x="44.903125" y="62.613869" style="stroke: #000000; stroke-width: 0.8"/>
      </g>
     </g>
     <g id="text_8">
      <!-- 1.8 -->
      <g transform="translate(22 66.413088)scale(0.1 -0.1)">
       <use xlink:href="#DejaVuSans-31"/>
       <use xlink:href="#DejaVuSans-2e" x="63.623047"/>
       <use xlink:href="#DejaVuSans-38" x="95.410156"/>
      </g>
     </g>
    </g>
    <g id="ytick_9">
     <g id="line2d_35">
      <path d="M 44.903125 39.284034 
L 697.023125 39.284034 
" clip-path="url(#pd36d82ac55)" style="fill: none; stroke-dasharray: 2.96,1.28; stroke-dashoffset: 0; stroke: #b0b0b0; stroke-opacity: 0.3; stroke-width: 0.8"/>
     </g>
     <g id="line2d_36">
      <g>
       <use xlink:href="#m0752517577" x="44.903125" y="39.284034" style="stroke: #000000; stroke-width: 0.8"/>
      </g>
     </g>
     <g id="text_9">
      <!-- 2.0 -->
      <g transform="translate(22 43.083253)scale(0.1 -0.1)">
       <use xlink:href="#DejaVuSans-32"/>
       <use xlink:href="#DejaVuSans-2e" x="63.623047"/>
       <use xlink:href="#DejaVuSans-30" x="95.410156"/>
      </g>
     </g>
    </g>
    <g id="text_10">
     <!-- $|v_x|$ (m/s) -->
     <g transform="translate(15.6 156.543125)rotate(-90)scale(0.1 -0.1)">
      <defs>
       <path id="DejaVuSans-7c" d="M 1344 4891 
L 1344 -1509 
L 813 -1509 
L 813 4891 
L 1344 4891 
z
" transform="scale(0.015625)"/>
       <path id="DejaVuSans-Oblique-76" d="M 459 3500 
L 1069 3500 
L 1581 525 
L 3256 3500 
L 3866 3500 
L 1875 0 
L 1100 0 
L 459 3500 
z
" transform="scale(0.015625)"/>
       <path id="DejaVuSans-Oblique-78" d="M 3841 3500 
L 2234 1784 
L 3219 0 
L 2559 0 
L 1819 1388 
L 531 0 
L -166 0 
L 1556 1844 
L 641 3500 
L 1300 3500 
L 1972 2234 
L 3144 3500 
L 3841 3500 
z
" transform="scale(0.015625)"/>
       <path id="DejaVuSans-20" transform="scale(0.015625)"/>
       <path id="DejaVuSans-28" d="M 1984 4856 
Q 1566 4138 1362 3434 
Q 1159 2731 1159 2009 
Q 1159 1288 1364 580 
Q 1569 -128 1984 -844 
L 1484 -844 
Q 1016 -109 783 600 
Q 550 1309 550 2009 
Q 550 2706 781 3412 
Q 1013 4119 1484 4856 
L 1984 4856 
z
" transform="scale(0.015625)"/>
       <path id="DejaVuSans-6d" d="M 3328 2828 
Q 3544 3216 3844 3400 
Q 4144 3584 4550 3584 
Q 5097 3584 5394 3201 
Q 5691 2819 5691 2113 
L 5691 0 
L 5113 0 
L 5113 2094 
Q 5113 2597 4934 2840 
Q 4756 3084 4391 3084 
Q 3944 3084 3684 2787 
Q 3425 2491 3425 1978 
L 3425 0 
L 2847 0 
L 2847 2094 
Q 2847 2600 2669 2842 
Q 2491 3084 2119 3084 
Q 1678 3084 1418 2786 
Q 1159 2488 1159 1978 
L 1159 0 
L 581 0 
L 581 3500 
L 1159 3500 
L 1159 2956 
Q 1356 3278 1631 3431 
Q 1906 3584 2284 3584 
Q 2666 3584 2933 3390 
Q 3200 3197 3328 2828 
z
" transform="scale(0.015625)"/>
       <path id="DejaVuSans-2f" d="M 1625 4666 
L 2156 4666 
L 531 -594 
L 0 -594 
L 1625 4666 
z
" transform="scale(0.015625)"/>
       <path id="DejaVuSans-73" d="M 2834 3397 
L 2834 2853 
Q 2591 2978 2328 3040 
Q 2066 3103 1784 3103 
Q 1356 3103 1142 2972 
Q 928 2841 928 2578 
Q 928 2378 1081 2264 
Q 1234 2150 1697 2047 
L 1894 2003 
Q 2506 1872 2764 1633 
Q 3022 1394 3022 966 
Q 3022 478 2636 193 
Q 2250 -91 1575 -91 
Q 1294 -91 989 -36 
Q 684 19 347 128 
L 347 722 
Q 666 556 975 473 
Q 1284 391 1588 391 
Q 1994 391 2212 530 
Q 2431 669 2431 922 
Q 2431 1156 2273 1281 
Q 2116 1406 1581 1522 
L 1381 1569 
Q 847 1681 609 1914 
Q 372 2147 372 2553 
Q 372 3047 722 3315 
Q 1072 3584 1716 3584 
Q 2034 3584 2315 3537 
Q 2597 3491 2834 3397 
z
" transform="scale(0.015625)"/>
       <path id="DejaVuSans-29" d="M 513 4856 
L 1013 4856 
Q 1481 4119 1714 3412 
Q 1947 2706 1947 2009 
Q 1947 1309 1714 600 
Q 1481 -109 1013 -844 
L 513 -844 
Q 928 -128 1133 580 
Q 1338 1288 1338 2009 
Q 1338 2731 1133 3434 
Q 928 4138 513 4856 
z
" transform="scale(0.015625)"/>
      </defs>
      <use xlink:href="#DejaVuSans-7c" transform="translate(0 0.578125)"/>
      <use xlink:href="#DejaVuSans-Oblique-76" transform="translate(33.691406 0.578125)"/>
      <use xlink:href="#DejaVuSans-Oblique-78" transform="translate(92.871094 -15.828125)scale(0.7)"/>
      <use xlink:href="#DejaVuSans-7c" transform="translate(137.03125 0.578125)"/>
      <use xlink:href="#DejaVuSans-20" transform="translate(170.722656 0.578125)"/>
      <use xlink:href="#DejaVuSans-28" transform="translate(202.509766 0.578125)"/>
      <use xlink:href="#DejaVuSans-6d" transform="translate(241.523438 0.578125)"/>
      <use xlink:href="#DejaVuSans-2f" transform="translate(338.935547 0.578125)"/>
      <use xlink:href="#DejaVuSans-73" transform="translate(372.626953 0.578125)"/>
      <use xlink:href="#DejaVuSans-29" transform="translate(424.726562 0.578125)"/>
     </g>
    </g>
   </g>
   <g id="patch_6">
    <path d="M 44.903125 236.808125 
L 44.903125 29.878125 
" style="fill: none; stroke: #000000; stroke-width: 0.8; stroke-linejoin: miter; stroke-linecap: square"/>
   </g>
   <g id="patch_7">
    <path d="M 44.903125 236.808125 
L 697.023125 236.808125 
" style="fill: none; stroke: #000000; stroke-width: 0.8; stroke-linejoin: miter; stroke-linecap: square"/>
   </g>
   <g id="line2d_37">
    <path d="M 44.903125 194.474098 
L 44.940753 113.04714 
L 45.195794 106.637268 
L 45.826809 98.635135 
L 46.204969 95.977867 
L 46.662644 94.156867 
L 47.203877 92.934878 
L 47.826338 83.126627 
L 48.526365 77.418594 
L 49.305116 76.625379 
L 50.162017 77.82881 
L 51.088193 80.206509 
L 52.049336 83.478519 
L 53.010478 86.125483 
L 54.940312 90.052672 
L 55.874684 90.683549 
L 56.812527 90.731181 
L 57.803015 90.451223 
L 58.86856 90.370541 
L 60.008256 89.324586 
L 62.535831 85.016344 
L 63.897211 82.281892 
L 65.278784 78.962251 
L 66.624477 76.384304 
L 69.276541 72.255896 
L 73.285001 70.761814 
L 74.68065 70.30105 
L 76.121337 70.124132 
L 77.581959 70.085249 
L 80.52914 70.47894 
L 83.387157 70.743345 
L 86.138517 71.223551 
L 93.296711 71.493788 
L 94.78478 72.002184 
L 96.285729 72.670972 
L 97.79133 74.039656 
L 100.620715 74.994235 
L 102.025803 75.36654 
L 103.452843 76.477624 
L 104.911675 76.727447 
L 107.922558 77.508025 
L 110.595367 77.848252 
L 111.835446 77.742295 
L 113.043835 77.349576 
L 114.222778 76.30265 
L 115.375561 76.19475 
L 117.621367 76.203498 
L 118.74262 75.424865 
L 120.967484 74.788155 
L 122.089318 74.622902 
L 124.317809 75.103108 
L 126.621381 75.928401 
L 130.320501 76.116983 
L 137.065105 77.329163 
L 139.59004 76.986992 
L 142.088085 76.223912 
L 144.639281 76.401802 
L 145.920859 76.234605 
L 148.506549 75.709683 
L 149.820213 76.040189 
L 151.121634 76.670095 
L 152.462284 77.781178 
L 153.737711 78.590918 
L 157.676431 79.394825 
L 160.506667 79.17222 
L 163.350225 79.357886 
L 164.6663 79.485228 
L 167.299358 78.750339 
L 168.652396 78.309988 
L 170.034051 78.2643 
L 171.438151 78.574393 
L 174.26297 78.530649 
L 175.687889 79.667007 
L 177.128202 81.006528 
L 178.582159 81.619908 
L 179.970332 82.344105 
L 181.306533 83.621414 
L 182.645138 84.052044 
L 183.989989 86.283931 
L 186.731215 87.92674 
L 189.491995 88.667463 
L 190.89682 89.133087 
L 192.293686 88.660658 
L 196.034017 87.95007 
L 197.212383 87.014933 
L 198.369341 86.633879 
L 199.528054 84.460316 
L 201.886701 81.786133 
L 203.066106 80.808224 
L 206.589047 79.65923 
L 207.822572 78.63855 
L 209.069857 78.458716 
L 210.309062 78.055304 
L 211.576917 78.05336 
L 212.896377 78.76492 
L 214.273398 79.087649 
L 215.68068 79.064319 
L 218.547679 79.40649 
L 219.934871 78.945726 
L 221.263874 78.711456 
L 223.896464 78.707567 
L 226.622801 78.700763 
L 228.032029 78.355676 
L 229.451453 77.4497 
L 230.879128 77.003517 
L 232.312108 76.996713 
L 233.752362 77.113362 
L 235.139137 78.106824 
L 237.867202 82.536576 
L 239.215351 84.931773 
L 240.542301 88.529428 
L 243.2067 94.182052 
L 245.916495 98.252137 
L 247.230578 100.658026 
L 248.524472 103.750201 
L 249.77799 107.880554 
L 250.997779 111.0573 
L 252.185427 112.481392 
L 253.356029 112.775931 
L 254.534804 112.053678 
L 255.730519 110.256309 
L 256.949426 109.583632 
L 258.179295 112.112003 
L 259.414695 116.693399 
L 260.655658 122.006769 
L 261.903607 126.23433 
L 263.152651 129.816432 
L 264.246877 131.576862 
L 265.345339 134.683618 
L 266.440639 140.248756 
L 267.538979 146.658628 
L 270.909245 175.991036 
L 272.047437 183.018177 
L 274.289635 194.012361 
L 275.377119 196.585448 
L 276.477744 198.378929 
L 277.538955 197.85984 
L 278.557181 196.601001 
L 279.581071 194.943611 
L 280.587379 194.285515 
L 281.582205 193.467026 
L 282.557822 193.488412 
L 283.513766 193.699353 
L 285.380268 193.699353 
L 286.352717 193.51077 
L 287.366672 196.412418 
L 288.418979 200.296836 
L 290.189653 213.13991 
L 291.019738 216.694794 
L 291.810541 217.819486 
L 292.598303 217.486064 
L 293.387753 216.826024 
L 294.201168 215.867557 
L 295.03139 214.471655 
L 295.8638 212.712196 
L 296.702176 212.196996 
L 299.260235 209.854292 
L 300.139111 210.038014 
L 301.010675 211.520431 
L 301.850317 214.645656 
L 302.686317 216.861019 
L 303.524245 218.160685 
L 304.372118 219.119152 
L 305.239146 220.515054 
L 306.109824 222.274513 
L 306.98895 222.978296 
L 308.659092 224.850515 
L 309.472315 225.594154 
L 310.265737 226.785919 
L 311.043651 226.960893 
L 311.817889 226.789808 
L 312.598283 226.789808 
L 313.380418 227.402216 
L 318.408273 227.402216 
L 319.092373 226.535124 
L 321.097594 226.558454 
L 321.716771 225.946045 
L 342.821232 225.922716 
L 344.363615 225.490142 
L 347.545632 225.559159 
L 348.298734 225.84981 
L 349.671091 225.773988 
L 350.002669 225.763295 
L 351.729659 222.856786 
L 352.096973 222.384357 
L 352.822422 222.040242 
L 353.473438 222.012052 
L 353.780517 221.807916 
L 354.084562 221.460885 
L 354.390372 221.716541 
L 355.333115 223.00357 
L 355.668197 222.901502 
L 356.004607 222.631265 
L 356.341921 221.704876 
L 357.028565 218.946123 
L 357.694656 215.829646 
L 358.363946 213.988533 
L 358.704684 213.061172 
L 359.425457 210.001075 
L 360.612478 204.359143 
L 361.029355 203.52899 
L 361.45101 203.773953 
L 362.207811 204.628408 
L 362.573116 204.157923 
L 362.93842 203.338463 
L 363.311111 203.640779 
L 364.066729 205.602429 
L 364.855729 209.572389 
L 365.275297 211.656521 
L 365.713663 213.149631 
L 366.155134 213.644418 
L 367.029811 213.496662 
L 367.433189 213.612339 
L 367.831303 213.934096 
L 368.229754 212.95716 
L 369.026159 210.309223 
L 370.704098 206.190535 
L 371.153121 204.831572 
L 371.613265 204.256103 
L 372.075296 203.887686 
L 372.542206 204.106403 
L 373.008219 204.61966 
L 373.442578 205.81337 
L 374.768424 211.072303 
L 378.017989 222.583633 
L 378.467013 223.148409 
L 378.918944 223.202846 
L 379.838692 221.839994 
L 380.316631 221.036087 
L 380.810078 220.477143 
L 381.308493 220.171911 
L 382.768844 220.338136 
L 383.657653 219.747114 
L 384.088821 219.855014 
L 384.51999 220.151498 
L 385.366166 221.736954 
L 385.781273 222.199663 
L 386.193693 222.283261 
L 386.614087 222.070376 
L 387.042537 221.220782 
L 389.136343 214.576639 
L 390.519094 211.263802 
L 391.194594 209.215637 
L 392.651771 205.263174 
L 393.024766 204.865595 
L 393.805547 203.019622 
L 394.908681 201.810359 
L 395.907394 204.833517 
L 398.042855 215.013101 
L 398.360385 215.351384 
L 398.657744 216.203895 
L 398.946895 216.66952 
L 399.232126 216.273885 
L 399.817857 214.668986 
L 400.121226 214.351117 
L 400.423121 214.205306 
L 400.722828 212.643179 
L 401.358527 208.261058 
L 401.994998 206.43161 
L 402.31645 206.027227 
L 402.647964 206.27705 
L 402.991289 207.052767 
L 403.351658 208.457418 
L 403.725979 209.410053 
L 404.120914 209.940806 
L 404.529402 209.854292 
L 404.93789 210.180909 
L 405.761322 212.50806 
L 406.167881 212.742331 
L 406.573936 212.3535 
L 407.463673 207.578661 
L 408.380298 203.504688 
L 408.842376 202.348889 
L 409.306044 201.818135 
L 409.779877 201.816191 
L 410.265165 202.183636 
L 410.721228 202.900057 
L 411.571742 206.27219 
L 411.996209 208.543932 
L 412.861147 214.763278 
L 413.72648 217.879755 
L 414.597117 220.231208 
L 414.999318 220.687112 
L 415.785863 222.230769 
L 416.167099 221.956644 
L 416.541458 221.257721 
L 416.916384 220.225375 
L 417.290421 219.791829 
L 417.666704 219.527424 
L 418.049034 220.025128 
L 418.44361 219.071521 
L 419.664768 211.678879 
L 420.967339 206.766005 
L 421.372398 206.065137 
L 421.782702 205.84156 
L 422.182519 205.441064 
L 422.938221 205.568406 
L 423.312882 206.260525 
L 424.087297 209.848459 
L 424.494309 207.62532 
L 425.310432 209.96608 
L 425.725794 210.323804 
L 426.145413 210.422956 
L 426.568208 209.714313 
L 427.296832 206.429666 
L 428.423955 202.775631 
L 428.82262 202.803821 
L 429.226506 207.232601 
L 430.054209 208.704325 
L 430.901055 210.738881 
L 431.301155 212.274762 
L 432.067018 216.178621 
L 432.432245 217.744636 
L 433.137433 221.921649 
L 433.491219 222.936497 
L 434.226449 223.798728 
L 434.614951 224.002865 
L 435.429003 224.183671 
L 436.190351 224.371281 
L 436.545455 223.408926 
L 437.980965 216.829912 
L 438.753383 213.531657 
L 439.584789 210.97704 
L 440.451794 208.059838 
L 440.877593 206.916676 
L 441.287758 206.559924 
L 442.085349 207.436737 
L 442.474306 207.116924 
L 442.861438 207.328837 
L 443.255225 207.341474 
L 443.660791 206.974029 
L 444.076715 206.274134 
L 444.957946 205.883359 
L 445.429802 206.043752 
L 445.91662 206.346068 
L 446.410024 206.091384 
L 446.908141 205.175688 
L 448.215916 199.665958 
L 448.649034 198.652082 
L 449.082691 198.383789 
L 449.977113 199.155618 
L 450.437871 199.462794 
L 450.908962 199.348089 
L 451.390398 198.493634 
L 451.880216 198.36532 
L 452.374008 199.682483 
L 453.32404 204.394138 
L 454.219146 206.660048 
L 454.663415 207.567968 
L 455.111966 207.270512 
L 455.577782 207.327865 
L 456.056741 207.82654 
L 456.551664 208.551709 
L 457.565573 210.233401 
L 458.07943 209.88151 
L 459.05397 208.586704 
L 459.94273 208.123023 
L 460.376435 207.99957 
L 461.273168 209.133983 
L 462.212411 209.671541 
L 462.69137 210.308251 
L 463.170329 210.708747 
L 463.65461 210.765127 
L 464.141587 211.269635 
L 465.544376 214.916866 
L 465.980864 215.319305 
L 466.414766 215.935602 
L 466.84381 216.178621 
L 467.28419 215.594403 
L 468.217997 213.798978 
L 468.718679 213.158379 
L 469.232881 213.082557 
L 469.760603 212.602352 
L 470.240891 211.959809 
L 472.072094 208.305774 
L 472.527458 208.040397 
L 472.988938 208.626559 
L 474.406236 211.621527 
L 474.886303 212.130895 
L 475.855844 213.901046 
L 477.238927 217.479259 
L 478.13612 219.447714 
L 479.045503 220.81737 
L 479.959567 221.595031 
L 480.89551 223.124107 
L 481.331901 223.5421 
L 482.567065 225.333637 
L 482.966581 225.574712 
L 484.15468 225.461951 
L 485.725518 225.381269 
L 486.521834 225.103255 
L 487.309021 225.103255 
L 488.061504 225.514443 
L 489.115992 225.564019 
L 490.228608 225.644702 
L 490.999717 225.922716 
L 492.412888 225.922716 
L 492.739063 226.070471 
L 495.97803 226.070471 
L 496.37882 225.927576 
L 496.777644 225.584433 
L 497.169159 224.947723 
L 497.536955 224.016474 
L 497.865681 222.590437 
L 498.522153 216.54801 
L 500.994539 187.672479 
L 502.48746 173.102997 
L 502.999453 169.273987 
L 503.516702 166.888512 
L 504.053416 165.072673 
L 504.571813 164.155033 
L 505.124936 162.851478 
L 505.712829 163.157682 
L 506.325662 160.915102 
L 507.661904 153.706183 
L 509.151759 145.126636 
L 512.324176 116.382335 
L 513.129747 109.102454 
L 513.971317 102.72466 
L 514.851176 95.183291 
L 515.769283 90.202371 
L 516.739494 86.285875 
L 518.829151 79.941132 
L 519.922963 77.655781 
L 521.027807 77.31361 
L 522.140007 77.257229 
L 525.239414 76.580664 
L 526.311001 76.070324 
L 528.56734 74.64526 
L 529.775231 73.749005 
L 531.028275 73.012171 
L 532.305116 72.431842 
L 533.598594 72.659307 
L 537.334079 71.586135 
L 538.50688 71.187584 
L 539.662626 70.959146 
L 540.794093 71.119538 
L 543.057867 70.933872 
L 546.529882 70.967894 
L 547.687446 70.265083 
L 551.246497 70.390481 
L 552.455215 70.655858 
L 553.713739 70.7832 
L 555.042401 70.570315 
L 559.328785 70.676271 
L 562.256415 70.855134 
L 564.966488 70.832776 
L 567.603974 71.117594 
L 571.62864 70.970811 
L 574.360365 71.015526 
L 578.315676 70.349654 
L 583.419132 70.214535 
L 584.657154 70.402146 
L 585.882432 70.801669 
L 587.126524 72.170353 
L 588.405542 76.507758 
L 589.673704 82.822367 
L 592.142793 91.752833 
L 594.54531 99.739414 
L 595.765314 101.940195 
L 597.022892 105.734209 
L 600.786413 126.251827 
L 602.016075 134.281179 
L 603.21067 139.254322 
L 604.39348 140.643419 
L 605.550878 140.799924 
L 606.706416 138.777032 
L 608.992156 132.681141 
L 610.144104 130.497857 
L 611.303916 127.217099 
L 613.59183 113.765505 
L 614.692855 106.827795 
L 615.786673 99.03077 
L 616.872802 93.989581 
L 617.972475 92.436203 
L 619.09494 94.187885 
L 622.510057 111.044663 
L 623.648224 118.457718 
L 624.789304 124.985212 
L 627.017565 141.241246 
L 628.106434 150.342798 
L 629.193579 158.355625 
L 630.287423 164.943387 
L 632.522243 176.020198 
L 633.66657 180.59965 
L 634.815958 187.024104 
L 635.956889 192.590214 
L 637.04759 197.33103 
L 638.1251 202.959353 
L 639.191993 206.17887 
L 640.237091 210.149803 
L 642.289698 215.877277 
L 643.31147 216.65105 
L 644.341413 216.673408 
L 644.341413 216.673408 
" clip-path="url(#pd36d82ac55)" style="fill: none; stroke: #27ae60; stroke-width: 1.5; stroke-linecap: square"/>
   </g>
   <g id="line2d_38">
    <path d="M 44.903125 194.474098 
L 45.10244 82.60608 
L 45.446111 73.941671 
L 45.737311 70.790977 
L 46.092395 68.165398 
L 46.535643 55.232893 
L 47.083777 45.733761 
L 47.73592 40.281385 
L 48.483966 39.284034 
L 49.324905 39.28695 
L 50.24553 39.817704 
L 62.337511 39.814788 
L 63.891564 39.284034 
L 150.857854 39.391935 
L 152.266951 39.467757 
L 155.11574 39.359856 
L 164.455436 39.359856 
L 166.049868 39.944074 
L 167.550991 40.360123 
L 168.996671 40.427196 
L 171.96807 40.351374 
L 183.276477 40.351374 
L 184.915865 39.767156 
L 186.471115 39.351107 
L 189.715239 39.284034 
L 194.703536 39.284034 
L 196.368085 39.418181 
L 214.57305 39.418181 
L 216.199119 39.284034 
L 299.84117 39.284034 
L 301.2507 39.920744 
L 302.665333 39.920744 
L 304.045896 40.339709 
L 314.555524 40.339709 
L 315.898938 40.524404 
L 317.238505 39.887694 
L 318.574393 39.887694 
L 319.914298 39.468729 
L 330.535059 39.468729 
L 331.905353 39.284034 
L 362.928081 39.284034 
L 364.244087 39.631065 
L 374.635163 39.631065 
L 375.923281 41.72103 
L 378.530457 41.72103 
L 379.82075 41.373998 
L 387.505885 41.373998 
L 388.774248 42.037927 
L 390.033396 42.037927 
L 391.22003 39.953795 
L 393.515694 39.953795 
L 394.665354 40.690629 
L 395.801267 42.269281 
L 396.930779 44.240652 
L 401.419537 44.240652 
L 402.531942 43.576724 
L 408.15454 43.675876 
L 409.221857 42.097223 
L 410.243526 40.125852 
L 412.778379 40.125852 
L 413.004655 43.066384 
L 413.18527 44.262038 
L 413.264647 44.262038 
L 413.357735 47.656529 
L 413.557907 46.81471 
L 413.745499 46.821515 
L 413.793686 49.934104 
L 413.868376 48.726785 
L 413.988846 48.646103 
L 414.165217 47.450448 
L 414.509221 47.450448 
L 414.660718 44.055957 
L 414.887052 44.055957 
L 415.063223 44.51575 
L 415.226592 46.75833 
L 415.365868 47.013986 
L 415.502837 43.901397 
L 415.652074 47.566126 
L 415.998624 63.519845 
L 416.933245 99.141587 
L 417.104857 110.000653 
L 417.543676 116.590359 
L 417.78999 116.590359 
L 418.058921 111.273101 
L 418.341133 102.18127 
L 418.636844 97.463783 
L 420.1445 62.240592 
L 420.514656 50.914929 
L 420.937452 44.660589 
L 421.417503 41.826986 
L 422.839431 41.826986 
L 423.278587 39.682585 
L 424.578253 39.682585 
L 425.03918 39.284034 
L 425.505437 40.409699 
L 431.426235 40.409699 
L 432.072358 39.284034 
L 433.425369 39.284034 
L 434.110214 40.006287 
L 441.2747 40.006287 
L 442.0019 39.284034 
L 446.562137 39.284034 
L 447.35033 39.806039 
L 449.776973 39.806039 
L 451.381794 39.917828 
L 455.867497 39.917828 
L 456.63962 39.395823 
L 458.95064 39.395823 
L 460.52014 39.284034 
L 468.207072 39.284034 
L 469.100378 40.605086 
L 479.757517 40.605086 
L 480.747941 39.284034 
L 518.753963 39.284034 
L 519.784359 39.962543 
L 528.69843 39.962543 
L 529.906444 40.174456 
L 532.36066 40.174456 
L 533.641581 39.495947 
L 545.270227 39.495947 
L 546.735712 39.284034 
L 571.09438 39.285978 
L 572.537566 40.398034 
L 588.856469 40.39609 
L 590.373985 39.284034 
L 597.910061 39.284034 
L 599.387204 49.996317 
L 614.827517 49.996317 
L 616.212652 39.284034 
L 657.838323 39.284034 
L 659.112116 39.494003 
L 668.638554 39.494003 
L 669.816536 40.383453 
L 672.221904 40.383453 
L 673.426996 40.173484 
L 683.280803 40.173484 
L 684.737231 39.284034 
L 686.255596 39.284034 
L 687.795619 42.402455 
L 690.92598 42.402455 
L 692.50725 44.028739 
L 694.068497 47.886911 
L 695.543338 53.500652 
L 697.023125 61.549446 
L 697.023125 61.549446 
" clip-path="url(#pd36d82ac55)" style="fill: none; stroke: #e67e22; stroke-width: 1.5; stroke-linecap: square"/>
   </g>
   <g id="legend_1">
    <g id="line2d_39">
     <path d="M 552.345 15.298437 
L 562.345 15.298437 
L 572.345 15.298437 
" style="fill: none; stroke: #27ae60; stroke-width: 1.5; stroke-linecap: square"/>
    </g>
    <g id="text_11">
     <!-- SF On -->
     <g transform="translate(580.345 18.798437)scale(0.1 -0.1)">
      <defs>
       <path id="DejaVuSans-53" d="M 3425 4513 
L 3425 3897 
Q 3066 4069 2747 4153 
Q 2428 4238 2131 4238 
Q 1616 4238 1336 4038 
Q 1056 3838 1056 3469 
Q 1056 3159 1242 3001 
Q 1428 2844 1947 2747 
L 2328 2669 
Q 3034 2534 3370 2195 
Q 3706 1856 3706 1288 
Q 3706 609 3251 259 
Q 2797 -91 1919 -91 
Q 1588 -91 1214 -16 
Q 841 59 441 206 
L 441 856 
Q 825 641 1194 531 
Q 1563 422 1919 422 
Q 2459 422 2753 634 
Q 3047 847 3047 1241 
Q 3047 1584 2836 1778 
Q 2625 1972 2144 2069 
L 1759 2144 
Q 1053 2284 737 2584 
Q 422 2884 422 3419 
Q 422 4038 858 4394 
Q 1294 4750 2059 4750 
Q 2388 4750 2728 4690 
Q 3069 4631 3425 4513 
z
" transform="scale(0.015625)"/>
       <path id="DejaVuSans-46" d="M 628 4666 
L 3309 4666 
L 3309 4134 
L 1259 4134 
L 1259 2759 
L 3109 2759 
L 3109 2228 
L 1259 2228 
L 1259 0 
L 628 0 
L 628 4666 
z
" transform="scale(0.015625)"/>
       <path id="DejaVuSans-4f" d="M 2522 4238 
Q 1834 4238 1429 3725 
Q 1025 3213 1025 2328 
Q 1025 1447 1429 934 
Q 1834 422 2522 422 
Q 3209 422 3611 934 
Q 4013 1447 4013 2328 
Q 4013 3213 3611 3725 
Q 3209 4238 2522 4238 
z
M 2522 4750 
Q 3503 4750 4090 4092 
Q 4678 3434 4678 2328 
Q 4678 1225 4090 567 
Q 3503 -91 2522 -91 
Q 1538 -91 948 565 
Q 359 1222 359 2328 
Q 359 3434 948 4092 
Q 1538 4750 2522 4750 
z
" transform="scale(0.015625)"/>
       <path id="DejaVuSans-6e" d="M 3513 2113 
L 3513 0 
L 2938 0 
L 2938 2094 
Q 2938 2591 2744 2837 
Q 2550 3084 2163 3084 
Q 1697 3084 1428 2787 
Q 1159 2491 1159 1978 
L 1159 0 
L 581 0 
L 581 3500 
L 1159 3500 
L 1159 2956 
Q 1366 3272 1645 3428 
Q 1925 3584 2291 3584 
Q 2894 3584 3203 3211 
Q 3513 2838 3513 2113 
z
" transform="scale(0.015625)"/>
      </defs>
      <use xlink:href="#DejaVuSans-53"/>
      <use xlink:href="#DejaVuSans-46" x="63.476562"/>
      <use xlink:href="#DejaVuSans-20" x="120.996094"/>
      <use xlink:href="#DejaVuSans-4f" x="152.783203"/>
      <use xlink:href="#DejaVuSans-6e" x="231.494141"/>
     </g>
    </g>
    <g id="line2d_40">
     <path d="M 629.8325 15.298437 
L 639.8325 15.298437 
L 649.8325 15.298437 
" style="fill: none; stroke: #e67e22; stroke-width: 1.5; stroke-linecap: square"/>
    </g>
    <g id="text_12">
     <!-- SF Off -->
     <g transform="translate(657.8325 18.798437)scale(0.1 -0.1)">
      <defs>
       <path id="DejaVuSans-66" d="M 2375 4863 
L 2375 4384 
L 1825 4384 
Q 1516 4384 1395 4259 
Q 1275 4134 1275 3809 
L 1275 3500 
L 2222 3500 
L 2222 3053 
L 1275 3053 
L 1275 0 
L 697 0 
L 697 3053 
L 147 3053 
L 147 3500 
L 697 3500 
L 697 3744 
Q 697 4328 969 4595 
Q 1241 4863 1831 4863 
L 2375 4863 
z
" transform="scale(0.015625)"/>
      </defs>
      <use xlink:href="#DejaVuSans-53"/>
      <use xlink:href="#DejaVuSans-46" x="63.476562"/>
      <use xlink:href="#DejaVuSans-20" x="120.996094"/>
      <use xlink:href="#DejaVuSans-4f" x="152.783203"/>
      <use xlink:href="#DejaVuSans-66" x="231.494141"/>
      <use xlink:href="#DejaVuSans-66" x="266.699219"/>
     </g>
    </g>
   </g>
   <g id="text_13">
    <g id="patch_8">
     <path d="M 236.190041 66.788875 
L 267.870041 66.788875 
L 267.870041 55.046375 
L 236.190041 55.046375 
z
" style="fill: #ffffff; opacity: 0.8"/>
    </g>
    <!-- $\mu = 0.1$ -->
    <g style="fill: #5d6d7e" transform="translate(238.190041 63.108875)scale(0.08 -0.08)">
     <defs>
      <path id="DejaVuSans-Oblique-3bc" d="M -84 -1331 
L 856 3500 
L 1434 3500 
L 1009 1322 
Q 997 1256 987 1175 
Q 978 1094 978 1013 
Q 978 722 1161 565 
Q 1344 409 1684 409 
Q 2147 409 2431 671 
Q 2716 934 2816 1459 
L 3213 3500 
L 3788 3500 
L 3266 809 
Q 3253 750 3248 706 
Q 3244 663 3244 628 
Q 3244 531 3283 486 
Q 3322 441 3406 441 
Q 3438 441 3492 456 
Q 3547 472 3647 513 
L 3559 50 
Q 3422 -19 3297 -55 
Q 3172 -91 3053 -91 
Q 2847 -91 2730 40 
Q 2613 172 2613 403 
Q 2438 153 2195 31 
Q 1953 -91 1625 -91 
Q 1334 -91 1117 43 
Q 900 178 831 397 
L 494 -1331 
L -84 -1331 
z
" transform="scale(0.015625)"/>
      <path id="DejaVuSans-3d" d="M 678 2906 
L 4684 2906 
L 4684 2381 
L 678 2381 
L 678 2906 
z
M 678 1631 
L 4684 1631 
L 4684 1100 
L 678 1100 
L 678 1631 
z
" transform="scale(0.015625)"/>
     </defs>
     <use xlink:href="#DejaVuSans-Oblique-3bc" transform="translate(0 0.78125)"/>
     <use xlink:href="#DejaVuSans-3d" transform="translate(83.105469 0.78125)"/>
     <use xlink:href="#DejaVuSans-30" transform="translate(186.376953 0.78125)"/>
     <use xlink:href="#DejaVuSans-2e" transform="translate(250 0.78125)"/>
     <use xlink:href="#DejaVuSans-31" transform="translate(281.787109 0.78125)"/>
    </g>
   </g>
   <g id="text_14">
    <g id="patch_9">
     <path d="M 584.898914 66.788875 
L 621.698914 66.788875 
L 621.698914 55.046375 
L 584.898914 55.046375 
z
" style="fill: #ffffff; opacity: 0.8"/>
    </g>
    <!-- $\mu = 0.05$ -->
    <g style="fill: #5d6d7e" transform="translate(586.898914 63.108875)scale(0.08 -0.08)">
     <defs>
      <path id="DejaVuSans-35" d="M 691 4666 
L 3169 4666 
L 3169 4134 
L 1269 4134 
L 1269 2991 
Q 1406 3038 1543 3061 
Q 1681 3084 1819 3084 
Q 2600 3084 3056 2656 
Q 3513 2228 3513 1497 
Q 3513 744 3044 326 
Q 2575 -91 1722 -91 
Q 1428 -91 1123 -41 
Q 819 9 494 109 
L 494 744 
Q 775 591 1075 516 
Q 1375 441 1709 441 
Q 2250 441 2565 725 
Q 2881 1009 2881 1497 
Q 2881 1984 2565 2268 
Q 2250 2553 1709 2553 
Q 1456 2553 1204 2497 
Q 953 2441 691 2322 
L 691 4666 
z
" transform="scale(0.015625)"/>
     </defs>
     <use xlink:href="#DejaVuSans-Oblique-3bc" transform="translate(0 0.78125)"/>
     <use xlink:href="#DejaVuSans-3d" transform="translate(83.105469 0.78125)"/>
     <use xlink:href="#DejaVuSans-30" transform="translate(186.376953 0.78125)"/>
     <use xlink:href="#DejaVuSans-2e" transform="translate(250 0.78125)"/>
     <use xlink:href="#DejaVuSans-30" transform="translate(281.787109 0.78125)"/>
     <use xlink:href="#DejaVuSans-35" transform="translate(345.410156 0.78125)"/>
    </g>
   </g>
  </g>
  <g id="axes_2">
   <g id="patch_10">
    <path d="M 44.903125 458.038125 
L 697.023125 458.038125 
L 697.023125 251.108125 
L 44.903125 251.108125 
z
" style="fill: #ffffff"/>
   </g>
   <g id="patch_11">
    <path d="M 230.879128 458.038125 
L 230.879128 251.108125 
L 273.180954 251.108125 
L 273.180954 458.038125 
z
" clip-path="url(#pc4ba19b392)" style="fill: #fadbd8; opacity: 0.5; stroke: #fadbd8; stroke-linejoin: miter"/>
   </g>
   <g id="patch_12">
    <path d="M 294.201168 458.038125 
L 294.201168 251.108125 
L 493.395023 251.108125 
L 493.395023 458.038125 
z
" clip-path="url(#pc4ba19b392)" style="fill: #fadbd8; opacity: 0.5; stroke: #fadbd8; stroke-linejoin: miter"/>
   </g>
   <g id="patch_13">
    <path d="M 562.256415 458.038125 
L 562.256415 251.108125 
L 644.341413 251.108125 
L 644.341413 458.038125 
z
" clip-path="url(#pc4ba19b392)" style="fill: #f5b7b1; opacity: 0.5; stroke: #f5b7b1; stroke-linejoin: miter"/>
   </g>
   <g id="matplotlib.axis_3">
    <g id="xtick_10">
     <g id="line2d_41">
      <path d="M 44.903125 458.038125 
L 44.903125 251.108125 
" clip-path="url(#pc4ba19b392)" style="fill: none; stroke-dasharray: 2.96,1.28; stroke-dashoffset: 0; stroke: #b0b0b0; stroke-opacity: 0.3; stroke-width: 0.8"/>
     </g>
     <g id="line2d_42">
      <g>
       <use xlink:href="#m6b09164885" x="44.903125" y="458.038125" style="stroke: #000000; stroke-width: 0.8"/>
      </g>
     </g>
     <g id="text_15">
      <!-- 0 -->
      <g transform="translate(41.721875 472.636562)scale(0.1 -0.1)">
       <use xlink:href="#DejaVuSans-30"/>
      </g>
     </g>
    </g>
    <g id="xtick_11">
     <g id="line2d_43">
      <path d="M 120.159683 458.038125 
L 120.159683 251.108125 
" clip-path="url(#pc4ba19b392)" style="fill: none; stroke-dasharray: 2.96,1.28; stroke-dashoffset: 0; stroke: #b0b0b0; stroke-opacity: 0.3; stroke-width: 0.8"/>
     </g>
     <g id="line2d_44">
      <g>
       <use xlink:href="#m6b09164885" x="120.159683" y="458.038125" style="stroke: #000000; stroke-width: 0.8"/>
      </g>
     </g>
     <g id="text_16">
      <!-- 2 -->
      <g transform="translate(116.978433 472.636562)scale(0.1 -0.1)">
       <use xlink:href="#DejaVuSans-32"/>
      </g>
     </g>
    </g>
    <g id="xtick_12">
     <g id="line2d_45">
      <path d="M 195.416241 458.038125 
L 195.416241 251.108125 
" clip-path="url(#pc4ba19b392)" style="fill: none; stroke-dasharray: 2.96,1.28; stroke-dashoffset: 0; stroke: #b0b0b0; stroke-opacity: 0.3; stroke-width: 0.8"/>
     </g>
     <g id="line2d_46">
      <g>
       <use xlink:href="#m6b09164885" x="195.416241" y="458.038125" style="stroke: #000000; stroke-width: 0.8"/>
      </g>
     </g>
     <g id="text_17">
      <!-- 4 -->
      <g transform="translate(192.234991 472.636562)scale(0.1 -0.1)">
       <use xlink:href="#DejaVuSans-34"/>
      </g>
     </g>
    </g>
    <g id="xtick_13">
     <g id="line2d_47">
      <path d="M 270.672799 458.038125 
L 270.672799 251.108125 
" clip-path="url(#pc4ba19b392)" style="fill: none; stroke-dasharray: 2.96,1.28; stroke-dashoffset: 0; stroke: #b0b0b0; stroke-opacity: 0.3; stroke-width: 0.8"/>
     </g>
     <g id="line2d_48">
      <g>
       <use xlink:href="#m6b09164885" x="270.672799" y="458.038125" style="stroke: #000000; stroke-width: 0.8"/>
      </g>
     </g>
     <g id="text_18">
      <!-- 6 -->
      <g transform="translate(267.491549 472.636562)scale(0.1 -0.1)">
       <use xlink:href="#DejaVuSans-36"/>
      </g>
     </g>
    </g>
    <g id="xtick_14">
     <g id="line2d_49">
      <path d="M 345.929357 458.038125 
L 345.929357 251.108125 
" clip-path="url(#pc4ba19b392)" style="fill: none; stroke-dasharray: 2.96,1.28; stroke-dashoffset: 0; stroke: #b0b0b0; stroke-opacity: 0.3; stroke-width: 0.8"/>
     </g>
     <g id="line2d_50">
      <g>
       <use xlink:href="#m6b09164885" x="345.929357" y="458.038125" style="stroke: #000000; stroke-width: 0.8"/>
      </g>
     </g>
     <g id="text_19">
      <!-- 8 -->
      <g transform="translate(342.748107 472.636562)scale(0.1 -0.1)">
       <use xlink:href="#DejaVuSans-38"/>
      </g>
     </g>
    </g>
    <g id="xtick_15">
     <g id="line2d_51">
      <path d="M 421.185915 458.038125 
L 421.185915 251.108125 
" clip-path="url(#pc4ba19b392)" style="fill: none; stroke-dasharray: 2.96,1.28; stroke-dashoffset: 0; stroke: #b0b0b0; stroke-opacity: 0.3; stroke-width: 0.8"/>
     </g>
     <g id="line2d_52">
      <g>
       <use xlink:href="#m6b09164885" x="421.185915" y="458.038125" style="stroke: #000000; stroke-width: 0.8"/>
      </g>
     </g>
     <g id="text_20">
      <!-- 10 -->
      <g transform="translate(414.823415 472.636562)scale(0.1 -0.1)">
       <use xlink:href="#DejaVuSans-31"/>
       <use xlink:href="#DejaVuSans-30" x="63.623047"/>
      </g>
     </g>
    </g>
    <g id="xtick_16">
     <g id="line2d_53">
      <path d="M 496.442473 458.038125 
L 496.442473 251.108125 
" clip-path="url(#pc4ba19b392)" style="fill: none; stroke-dasharray: 2.96,1.28; stroke-dashoffset: 0; stroke: #b0b0b0; stroke-opacity: 0.3; stroke-width: 0.8"/>
     </g>
     <g id="line2d_54">
      <g>
       <use xlink:href="#m6b09164885" x="496.442473" y="458.038125" style="stroke: #000000; stroke-width: 0.8"/>
      </g>
     </g>
     <g id="text_21">
      <!-- 12 -->
      <g transform="translate(490.079973 472.636562)scale(0.1 -0.1)">
       <use xlink:href="#DejaVuSans-31"/>
       <use xlink:href="#DejaVuSans-32" x="63.623047"/>
      </g>
     </g>
    </g>
    <g id="xtick_17">
     <g id="line2d_55">
      <path d="M 571.699031 458.038125 
L 571.699031 251.108125 
" clip-path="url(#pc4ba19b392)" style="fill: none; stroke-dasharray: 2.96,1.28; stroke-dashoffset: 0; stroke: #b0b0b0; stroke-opacity: 0.3; stroke-width: 0.8"/>
     </g>
     <g id="line2d_56">
      <g>
       <use xlink:href="#m6b09164885" x="571.699031" y="458.038125" style="stroke: #000000; stroke-width: 0.8"/>
      </g>
     </g>
     <g id="text_22">
      <!-- 14 -->
      <g transform="translate(565.336531 472.636562)scale(0.1 -0.1)">
       <use xlink:href="#DejaVuSans-31"/>
       <use xlink:href="#DejaVuSans-34" x="63.623047"/>
      </g>
     </g>
    </g>
    <g id="xtick_18">
     <g id="line2d_57">
      <path d="M 646.955589 458.038125 
L 646.955589 251.108125 
" clip-path="url(#pc4ba19b392)" style="fill: none; stroke-dasharray: 2.96,1.28; stroke-dashoffset: 0; stroke: #b0b0b0; stroke-opacity: 0.3; stroke-width: 0.8"/>
     </g>
     <g id="line2d_58">
      <g>
       <use xlink:href="#m6b09164885" x="646.955589" y="458.038125" style="stroke: #000000; stroke-width: 0.8"/>
      </g>
     </g>
     <g id="text_23">
      <!-- 16 -->
      <g transform="translate(640.593089 472.636562)scale(0.1 -0.1)">
       <use xlink:href="#DejaVuSans-31"/>
       <use xlink:href="#DejaVuSans-36" x="63.623047"/>
      </g>
     </g>
    </g>
    <g id="text_24">
     <!-- Cumulative Distance Traveled (m) -->
     <g transform="translate(285.912344 486.314687)scale(0.1 -0.1)">
      <defs>
       <path id="DejaVuSans-43" d="M 4122 4306 
L 4122 3641 
Q 3803 3938 3442 4084 
Q 3081 4231 2675 4231 
Q 1875 4231 1450 3742 
Q 1025 3253 1025 2328 
Q 1025 1406 1450 917 
Q 1875 428 2675 428 
Q 3081 428 3442 575 
Q 3803 722 4122 1019 
L 4122 359 
Q 3791 134 3420 21 
Q 3050 -91 2638 -91 
Q 1578 -91 968 557 
Q 359 1206 359 2328 
Q 359 3453 968 4101 
Q 1578 4750 2638 4750 
Q 3056 4750 3426 4639 
Q 3797 4528 4122 4306 
z
" transform="scale(0.015625)"/>
       <path id="DejaVuSans-75" d="M 544 1381 
L 544 3500 
L 1119 3500 
L 1119 1403 
Q 1119 906 1312 657 
Q 1506 409 1894 409 
Q 2359 409 2629 706 
Q 2900 1003 2900 1516 
L 2900 3500 
L 3475 3500 
L 3475 0 
L 2900 0 
L 2900 538 
Q 2691 219 2414 64 
Q 2138 -91 1772 -91 
Q 1169 -91 856 284 
Q 544 659 544 1381 
z
M 1991 3584 
L 1991 3584 
z
" transform="scale(0.015625)"/>
       <path id="DejaVuSans-6c" d="M 603 4863 
L 1178 4863 
L 1178 0 
L 603 0 
L 603 4863 
z
" transform="scale(0.015625)"/>
       <path id="DejaVuSans-61" d="M 2194 1759 
Q 1497 1759 1228 1600 
Q 959 1441 959 1056 
Q 959 750 1161 570 
Q 1363 391 1709 391 
Q 2188 391 2477 730 
Q 2766 1069 2766 1631 
L 2766 1759 
L 2194 1759 
z
M 3341 1997 
L 3341 0 
L 2766 0 
L 2766 531 
Q 2569 213 2275 61 
Q 1981 -91 1556 -91 
Q 1019 -91 701 211 
Q 384 513 384 1019 
Q 384 1609 779 1909 
Q 1175 2209 1959 2209 
L 2766 2209 
L 2766 2266 
Q 2766 2663 2505 2880 
Q 2244 3097 1772 3097 
Q 1472 3097 1187 3025 
Q 903 2953 641 2809 
L 641 3341 
Q 956 3463 1253 3523 
Q 1550 3584 1831 3584 
Q 2591 3584 2966 3190 
Q 3341 2797 3341 1997 
z
" transform="scale(0.015625)"/>
       <path id="DejaVuSans-74" d="M 1172 4494 
L 1172 3500 
L 2356 3500 
L 2356 3053 
L 1172 3053 
L 1172 1153 
Q 1172 725 1289 603 
Q 1406 481 1766 481 
L 2356 481 
L 2356 0 
L 1766 0 
Q 1100 0 847 248 
Q 594 497 594 1153 
L 594 3053 
L 172 3053 
L 172 3500 
L 594 3500 
L 594 4494 
L 1172 4494 
z
" transform="scale(0.015625)"/>
       <path id="DejaVuSans-69" d="M 603 3500 
L 1178 3500 
L 1178 0 
L 603 0 
L 603 3500 
z
M 603 4863 
L 1178 4863 
L 1178 4134 
L 603 4134 
L 603 4863 
z
" transform="scale(0.015625)"/>
       <path id="DejaVuSans-76" d="M 191 3500 
L 800 3500 
L 1894 563 
L 2988 3500 
L 3597 3500 
L 2284 0 
L 1503 0 
L 191 3500 
z
" transform="scale(0.015625)"/>
       <path id="DejaVuSans-65" d="M 3597 1894 
L 3597 1613 
L 953 1613 
Q 991 1019 1311 708 
Q 1631 397 2203 397 
Q 2534 397 2845 478 
Q 3156 559 3463 722 
L 3463 178 
Q 3153 47 2828 -22 
Q 2503 -91 2169 -91 
Q 1331 -91 842 396 
Q 353 884 353 1716 
Q 353 2575 817 3079 
Q 1281 3584 2069 3584 
Q 2775 3584 3186 3129 
Q 3597 2675 3597 1894 
z
M 3022 2063 
Q 3016 2534 2758 2815 
Q 2500 3097 2075 3097 
Q 1594 3097 1305 2825 
Q 1016 2553 972 2059 
L 3022 2063 
z
" transform="scale(0.015625)"/>
       <path id="DejaVuSans-44" d="M 1259 4147 
L 1259 519 
L 2022 519 
Q 2988 519 3436 956 
Q 3884 1394 3884 2338 
Q 3884 3275 3436 3711 
Q 2988 4147 2022 4147 
L 1259 4147 
z
M 628 4666 
L 1925 4666 
Q 3281 4666 3915 4102 
Q 4550 3538 4550 2338 
Q 4550 1131 3912 565 
Q 3275 0 1925 0 
L 628 0 
L 628 4666 
z
" transform="scale(0.015625)"/>
       <path id="DejaVuSans-63" d="M 3122 3366 
L 3122 2828 
Q 2878 2963 2633 3030 
Q 2388 3097 2138 3097 
Q 1578 3097 1268 2742 
Q 959 2388 959 1747 
Q 959 1106 1268 751 
Q 1578 397 2138 397 
Q 2388 397 2633 464 
Q 2878 531 3122 666 
L 3122 134 
Q 2881 22 2623 -34 
Q 2366 -91 2075 -91 
Q 1284 -91 818 406 
Q 353 903 353 1747 
Q 353 2603 823 3093 
Q 1294 3584 2113 3584 
Q 2378 3584 2631 3529 
Q 2884 3475 3122 3366 
z
" transform="scale(0.015625)"/>
       <path id="DejaVuSans-54" d="M -19 4666 
L 3928 4666 
L 3928 4134 
L 2272 4134 
L 2272 0 
L 1638 0 
L 1638 4134 
L -19 4134 
L -19 4666 
z
" transform="scale(0.015625)"/>
       <path id="DejaVuSans-72" d="M 2631 2963 
Q 2534 3019 2420 3045 
Q 2306 3072 2169 3072 
Q 1681 3072 1420 2755 
Q 1159 2438 1159 1844 
L 1159 0 
L 581 0 
L 581 3500 
L 1159 3500 
L 1159 2956 
Q 1341 3275 1631 3429 
Q 1922 3584 2338 3584 
Q 2397 3584 2469 3576 
Q 2541 3569 2628 3553 
L 2631 2963 
z
" transform="scale(0.015625)"/>
       <path id="DejaVuSans-64" d="M 2906 2969 
L 2906 4863 
L 3481 4863 
L 3481 0 
L 2906 0 
L 2906 525 
Q 2725 213 2448 61 
Q 2172 -91 1784 -91 
Q 1150 -91 751 415 
Q 353 922 353 1747 
Q 353 2572 751 3078 
Q 1150 3584 1784 3584 
Q 2172 3584 2448 3432 
Q 2725 3281 2906 2969 
z
M 947 1747 
Q 947 1113 1208 752 
Q 1469 391 1925 391 
Q 2381 391 2643 752 
Q 2906 1113 2906 1747 
Q 2906 2381 2643 2742 
Q 2381 3103 1925 3103 
Q 1469 3103 1208 2742 
Q 947 2381 947 1747 
z
" transform="scale(0.015625)"/>
      </defs>
      <use xlink:href="#DejaVuSans-43"/>
      <use xlink:href="#DejaVuSans-75" x="69.824219"/>
      <use xlink:href="#DejaVuSans-6d" x="133.203125"/>
      <use xlink:href="#DejaVuSans-75" x="230.615234"/>
      <use xlink:href="#DejaVuSans-6c" x="293.994141"/>
      <use xlink:href="#DejaVuSans-61" x="321.777344"/>
      <use xlink:href="#DejaVuSans-74" x="383.056641"/>
      <use xlink:href="#DejaVuSans-69" x="422.265625"/>
      <use xlink:href="#DejaVuSans-76" x="450.048828"/>
      <use xlink:href="#DejaVuSans-65" x="509.228516"/>
      <use xlink:href="#DejaVuSans-20" x="570.751953"/>
      <use xlink:href="#DejaVuSans-44" x="602.539062"/>
      <use xlink:href="#DejaVuSans-69" x="679.541016"/>
      <use xlink:href="#DejaVuSans-73" x="707.324219"/>
      <use xlink:href="#DejaVuSans-74" x="759.423828"/>
      <use xlink:href="#DejaVuSans-61" x="798.632812"/>
      <use xlink:href="#DejaVuSans-6e" x="859.912109"/>
      <use xlink:href="#DejaVuSans-63" x="923.291016"/>
      <use xlink:href="#DejaVuSans-65" x="978.271484"/>
      <use xlink:href="#DejaVuSans-20" x="1039.794922"/>
      <use xlink:href="#DejaVuSans-54" x="1071.582031"/>
      <use xlink:href="#DejaVuSans-72" x="1117.916016"/>
      <use xlink:href="#DejaVuSans-61" x="1159.029297"/>
      <use xlink:href="#DejaVuSans-76" x="1220.308594"/>
      <use xlink:href="#DejaVuSans-65" x="1279.488281"/>
      <use xlink:href="#DejaVuSans-6c" x="1341.011719"/>
      <use xlink:href="#DejaVuSans-65" x="1368.794922"/>
      <use xlink:href="#DejaVuSans-64" x="1430.318359"/>
      <use xlink:href="#DejaVuSans-20" x="1493.794922"/>
      <use xlink:href="#DejaVuSans-28" x="1525.582031"/>
      <use xlink:href="#DejaVuSans-6d" x="1564.595703"/>
      <use xlink:href="#DejaVuSans-29" x="1662.007812"/>
     </g>
    </g>
   </g>
   <g id="matplotlib.axis_4">
    <g id="ytick_10">
     <g id="line2d_59">
      <path d="M 44.903125 424.491638 
L 697.023125 424.491638 
" clip-path="url(#pc4ba19b392)" style="fill: none; stroke-dasharray: 2.96,1.28; stroke-dashoffset: 0; stroke: #b0b0b0; stroke-opacity: 0.3; stroke-width: 0.8"/>
     </g>
     <g id="line2d_60">
      <g>
       <use xlink:href="#m0752517577" x="44.903125" y="424.491638" style="stroke: #000000; stroke-width: 0.8"/>
      </g>
     </g>
     <g id="text_25">
      <!-- 0.2 -->
      <g transform="translate(22 428.290857)scale(0.1 -0.1)">
       <use xlink:href="#DejaVuSans-30"/>
       <use xlink:href="#DejaVuSans-2e" x="63.623047"/>
       <use xlink:href="#DejaVuSans-32" x="95.410156"/>
      </g>
     </g>
    </g>
    <g id="ytick_11">
     <g id="line2d_61">
      <path d="M 44.903125 383.497237 
L 697.023125 383.497237 
" clip-path="url(#pc4ba19b392)" style="fill: none; stroke-dasharray: 2.96,1.28; stroke-dashoffset: 0; stroke: #b0b0b0; stroke-opacity: 0.3; stroke-width: 0.8"/>
     </g>
     <g id="line2d_62">
      <g>
       <use xlink:href="#m0752517577" x="44.903125" y="383.497237" style="stroke: #000000; stroke-width: 0.8"/>
      </g>
     </g>
     <g id="text_26">
      <!-- 0.4 -->
      <g transform="translate(22 387.296456)scale(0.1 -0.1)">
       <use xlink:href="#DejaVuSans-30"/>
       <use xlink:href="#DejaVuSans-2e" x="63.623047"/>
       <use xlink:href="#DejaVuSans-34" x="95.410156"/>
      </g>
     </g>
    </g>
    <g id="ytick_12">
     <g id="line2d_63">
      <path d="M 44.903125 342.502836 
L 697.023125 342.502836 
" clip-path="url(#pc4ba19b392)" style="fill: none; stroke-dasharray: 2.96,1.28; stroke-dashoffset: 0; stroke: #b0b0b0; stroke-opacity: 0.3; stroke-width: 0.8"/>
     </g>
     <g id="line2d_64">
      <g>
       <use xlink:href="#m0752517577" x="44.903125" y="342.502836" style="stroke: #000000; stroke-width: 0.8"/>
      </g>
     </g>
     <g id="text_27">
      <!-- 0.6 -->
      <g transform="translate(22 346.302055)scale(0.1 -0.1)">
       <use xlink:href="#DejaVuSans-30"/>
       <use xlink:href="#DejaVuSans-2e" x="63.623047"/>
       <use xlink:href="#DejaVuSans-36" x="95.410156"/>
      </g>
     </g>
    </g>
    <g id="ytick_13">
     <g id="line2d_65">
      <path d="M 44.903125 301.508435 
L 697.023125 301.508435 
" clip-path="url(#pc4ba19b392)" style="fill: none; stroke-dasharray: 2.96,1.28; stroke-dashoffset: 0; stroke: #b0b0b0; stroke-opacity: 0.3; stroke-width: 0.8"/>
     </g>
     <g id="line2d_66">
      <g>
       <use xlink:href="#m0752517577" x="44.903125" y="301.508435" style="stroke: #000000; stroke-width: 0.8"/>
      </g>
     </g>
     <g id="text_28">
      <!-- 0.8 -->
      <g transform="translate(22 305.307654)scale(0.1 -0.1)">
       <use xlink:href="#DejaVuSans-30"/>
       <use xlink:href="#DejaVuSans-2e" x="63.623047"/>
       <use xlink:href="#DejaVuSans-38" x="95.410156"/>
      </g>
     </g>
    </g>
    <g id="ytick_14">
     <g id="line2d_67">
      <path d="M 44.903125 260.514034 
L 697.023125 260.514034 
" clip-path="url(#pc4ba19b392)" style="fill: none; stroke-dasharray: 2.96,1.28; stroke-dashoffset: 0; stroke: #b0b0b0; stroke-opacity: 0.3; stroke-width: 0.8"/>
     </g>
     <g id="line2d_68">
      <g>
       <use xlink:href="#m0752517577" x="44.903125" y="260.514034" style="stroke: #000000; stroke-width: 0.8"/>
      </g>
     </g>
     <g id="text_29">
      <!-- 1.0 -->
      <g transform="translate(22 264.313253)scale(0.1 -0.1)">
       <use xlink:href="#DejaVuSans-31"/>
       <use xlink:href="#DejaVuSans-2e" x="63.623047"/>
       <use xlink:href="#DejaVuSans-30" x="95.410156"/>
      </g>
     </g>
    </g>
    <g id="text_30">
     <!-- $|v_y|$ (m/s) -->
     <g transform="translate(14.9 377.773125)rotate(-90)scale(0.1 -0.1)">
      <defs>
       <path id="DejaVuSans-Oblique-79" d="M 1588 -325 
Q 1188 -997 936 -1164 
Q 684 -1331 294 -1331 
L -159 -1331 
L -63 -850 
L 269 -850 
Q 509 -850 678 -719 
Q 847 -588 1056 -206 
L 1234 128 
L 459 3500 
L 1069 3500 
L 1650 819 
L 3256 3500 
L 3859 3500 
L 1588 -325 
z
" transform="scale(0.015625)"/>
      </defs>
      <use xlink:href="#DejaVuSans-7c" transform="translate(0 0.578125)"/>
      <use xlink:href="#DejaVuSans-Oblique-76" transform="translate(33.691406 0.578125)"/>
      <use xlink:href="#DejaVuSans-Oblique-79" transform="translate(92.871094 -15.828125)scale(0.7)"/>
      <use xlink:href="#DejaVuSans-7c" transform="translate(137.03125 0.578125)"/>
      <use xlink:href="#DejaVuSans-20" transform="translate(170.722656 0.578125)"/>
      <use xlink:href="#DejaVuSans-28" transform="translate(202.509766 0.578125)"/>
      <use xlink:href="#DejaVuSans-6d" transform="translate(241.523438 0.578125)"/>
      <use xlink:href="#DejaVuSans-2f" transform="translate(338.935547 0.578125)"/>
      <use xlink:href="#DejaVuSans-73" transform="translate(372.626953 0.578125)"/>
      <use xlink:href="#DejaVuSans-29" transform="translate(424.726562 0.578125)"/>
     </g>
    </g>
   </g>
   <g id="patch_14">
    <path d="M 44.903125 458.038125 
L 44.903125 251.108125 
" style="fill: none; stroke: #000000; stroke-width: 0.8; stroke-linejoin: miter; stroke-linecap: square"/>
   </g>
   <g id="patch_15">
    <path d="M 44.903125 458.038125 
L 697.023125 458.038125 
" style="fill: none; stroke: #000000; stroke-width: 0.8; stroke-linejoin: miter; stroke-linecap: square"/>
   </g>
   <g id="line2d_69">
    <path d="M 44.903125 409.528682 
L 44.940753 298.242548 
L 45.195794 292.855688 
L 45.826809 285.673209 
L 46.204969 283.159341 
L 46.662644 281.10254 
L 47.203877 279.943672 
L 47.826338 267.527493 
L 48.526365 263.639857 
L 49.305116 263.192335 
L 50.162017 261.820731 
L 51.088193 262.015454 
L 52.049336 263.687684 
L 53.974027 269.951287 
L 56.812527 269.951287 
L 57.803015 269.396154 
L 62.535831 269.396154 
L 63.897211 268.470364 
L 65.278784 266.798134 
L 67.970645 260.534531 
L 74.68065 260.534531 
L 76.121337 261.385165 
L 77.581959 263.467339 
L 79.052955 263.467339 
L 80.52914 265.325752 
L 81.988579 269.221928 
L 83.387157 278.939309 
L 84.757498 289.462914 
L 86.138517 303.546198 
L 87.530077 309.211966 
L 88.932123 316.360365 
L 91.819203 333.297885 
L 93.296711 344.166526 
L 94.78478 358.757116 
L 96.285729 375.392302 
L 97.79133 389.692516 
L 99.2382 397.746208 
L 100.620715 401.931053 
L 102.025803 401.801237 
L 103.452843 400.865198 
L 104.911675 402.586963 
L 106.407142 400.195623 
L 107.922558 399.845463 
L 109.334185 401.348591 
L 110.595367 400.383514 
L 111.835446 392.806382 
L 113.043835 390.356967 
L 114.222778 383.167574 
L 115.375561 379.664261 
L 116.505513 367.69902 
L 117.621367 363.454391 
L 118.74262 354.816529 
L 119.859166 347.428997 
L 120.967484 345.317785 
L 122.089318 337.060829 
L 123.218793 329.591308 
L 124.317809 318.83711 
L 125.449395 309.741477 
L 126.621381 295.555706 
L 129.06696 278.139918 
L 130.320501 276.354954 
L 131.63577 270.205794 
L 132.985178 267.442088 
L 134.35283 267.981847 
L 135.737274 265.336001 
L 137.065105 265.336001 
L 138.332681 263.937067 
L 139.59004 266.128559 
L 144.639281 266.128559 
L 145.920859 265.978246 
L 147.208352 265.978246 
L 148.506549 264.232568 
L 149.820213 263.692808 
L 151.121634 265.317211 
L 152.462284 265.317211 
L 153.737711 264.352135 
L 155.013664 262.160643 
L 157.676431 262.160643 
L 159.080834 263.504917 
L 160.506667 267.37718 
L 161.952113 276.255884 
L 163.350225 286.191902 
L 165.973795 313.572746 
L 167.299358 317.842996 
L 168.652396 328.689431 
L 170.034051 337.791896 
L 171.438151 340.804985 
L 172.850139 342.560911 
L 174.26297 353.321942 
L 175.687889 362.871929 
L 177.128202 369.197024 
L 178.582159 370.370488 
L 179.970332 370.563504 
L 181.306533 364.064183 
L 182.645138 358.822024 
L 183.989989 360.871744 
L 185.353151 362.426115 
L 186.731215 361.484952 
L 188.105966 368.050888 
L 189.491995 369.031338 
L 193.569307 337.178688 
L 194.814809 331.27037 
L 196.034017 322.429244 
L 197.212383 318.994255 
L 198.369341 310.877364 
L 199.528054 303.797289 
L 200.704472 291.396483 
L 201.886701 283.235181 
L 203.066106 276.081658 
L 204.233389 276.706822 
L 205.396937 280.239173 
L 206.589047 286.625759 
L 207.822572 286.625759 
L 209.069857 282.480201 
L 210.309062 281.192293 
L 211.576917 277.10481 
L 214.273398 277.256831 
L 215.68068 279.236519 
L 217.107149 282.382839 
L 218.547679 289.491951 
L 221.263874 314.874318 
L 222.574511 321.954393 
L 223.896464 330.35312 
L 226.622801 330.395823 
L 228.032029 333.384998 
L 229.451453 335.321983 
L 230.879128 340.659796 
L 232.312108 343.348346 
L 233.752362 342.212459 
L 235.139137 332.677845 
L 236.508827 316.756644 
L 237.867202 304.451491 
L 239.215351 296.488329 
L 240.542301 293.28735 
L 241.871256 297.262098 
L 243.2067 297.282596 
L 244.562164 296.066428 
L 245.916495 296.959765 
L 247.230578 293.675088 
L 248.524472 289.013683 
L 249.77799 288.781382 
L 250.997779 292.424759 
L 252.185427 292.807373 
L 253.356029 288.757468 
L 255.730519 278.056222 
L 256.949426 276.011626 
L 258.179295 284.618742 
L 259.414695 285.896401 
L 260.655658 299.718346 
L 261.903607 311.461534 
L 264.246877 326.69437 
L 266.440639 330.520514 
L 267.538979 330.529055 
L 269.77162 331.132014 
L 270.909245 329.750161 
L 272.047437 323.466061 
L 273.180954 323.858924 
L 274.289635 310.756089 
L 275.377119 296.071553 
L 276.477744 291.119771 
L 277.538955 283.178814 
L 278.557181 277.533543 
L 279.581071 275.331802 
L 280.587379 275.328386 
L 281.582205 275.073879 
L 282.557822 276.018458 
L 283.513766 277.572829 
L 284.444897 278.063054 
L 285.380268 277.279036 
L 286.352717 275.097792 
L 287.366672 275.717833 
L 288.418979 273.738145 
L 289.327965 275.268602 
L 290.189653 275.772492 
L 291.810541 275.792989 
L 292.598303 275.719541 
L 293.387753 274.631481 
L 294.201168 272.824311 
L 295.8638 267.356683 
L 296.702176 266.591454 
L 297.540553 266.012408 
L 298.392399 264.661301 
L 299.260235 262.63037 
L 300.139111 262.539841 
L 301.010675 263.048855 
L 301.850317 263.725262 
L 302.686317 264.912392 
L 303.524245 268.576266 
L 304.372118 273.809885 
L 305.239146 284.700731 
L 310.265737 365.17274 
L 312.598283 403.734806 
L 313.380418 413.62983 
L 314.143381 421.763802 
L 314.883521 424.493346 
L 332.969635 424.491638 
L 333.447529 424.744437 
L 334.885062 424.744437 
L 335.346342 424.961366 
L 338.573324 424.961366 
L 339.046379 424.708567 
L 340.361623 424.708567 
L 340.771926 424.491638 
L 345.060971 424.600956 
L 345.413193 424.734188 
L 348.298734 424.836674 
L 348.674131 425.654854 
L 349.671091 425.412304 
L 350.002669 425.412304 
L 350.332706 425.895696 
L 351.013236 425.79321 
L 351.368878 425.815416 
L 351.729659 426.970091 
L 352.096973 430.143741 
L 352.469417 432.318152 
L 352.822422 432.740053 
L 353.152801 434.612131 
L 353.473438 437.095708 
L 353.780517 437.095708 
L 354.084562 439.10785 
L 354.390372 438.624458 
L 355.011597 438.624458 
L 355.668197 439.507545 
L 356.341921 434.159484 
L 356.686893 432.919404 
L 357.028565 431.047326 
L 357.365543 428.563749 
L 357.694656 428.563749 
L 358.027704 426.551607 
L 359.05847 426.551607 
L 359.425457 426.056258 
L 359.80775 424.491638 
L 362.207811 424.491638 
L 362.573116 425.564325 
L 366.155134 425.564325 
L 366.597806 426.561855 
L 367.029811 426.561855 
L 367.433189 425.489168 
L 368.229754 425.489168 
L 368.628205 426.983756 
L 369.026159 426.983756 
L 369.428992 427.269009 
L 370.704098 427.269009 
L 371.153121 428.225545 
L 372.542206 428.264831 
L 373.442578 428.264831 
L 373.879455 426.770243 
L 374.321423 426.770243 
L 374.768424 426.484991 
L 376.158632 427.55597 
L 377.104487 425.562617 
L 380.316631 425.562617 
L 381.809726 424.491638 
L 394.208029 424.518968 
L 394.575825 424.913539 
L 394.908681 424.913539 
L 395.241367 425.728302 
L 396.644083 425.700973 
L 396.998049 426.317597 
L 398.360385 426.319305 
L 398.657744 425.924734 
L 398.946895 425.924734 
L 399.232126 425.186835 
L 399.521644 426.331262 
L 400.423121 426.331262 
L 400.722828 425.714638 
L 401.031334 425.714638 
L 401.358527 426.804405 
L 402.31645 426.80953 
L 402.647964 426.975215 
L 402.991289 426.898351 
L 403.351658 425.753924 
L 403.725979 425.948647 
L 405.349606 425.948647 
L 405.761322 425.789794 
L 406.167881 425.782962 
L 406.573936 426.862481 
L 407.016608 427.685785 
L 407.463673 427.520099 
L 408.380298 427.520099 
L 408.842376 427.325376 
L 410.721228 427.325376 
L 411.145678 426.394461 
L 411.571742 426.394461 
L 412.419339 424.491638 
L 412.861147 424.510427 
L 413.294918 426.097252 
L 414.170206 430.958505 
L 414.597117 432.965522 
L 415.396488 433.03043 
L 416.541458 433.044095 
L 416.916384 434.219268 
L 417.290421 434.219268 
L 417.666704 434.818811 
L 418.049034 433.231986 
L 418.44361 430.56735 
L 419.247314 426.802697 
L 419.664768 426.73779 
L 420.093697 427.789979 
L 420.967339 427.776314 
L 421.372398 428.07694 
L 421.782702 426.901767 
L 422.182519 426.901767 
L 422.568773 426.283435 
L 423.312882 426.283435 
L 423.691752 425.844453 
L 424.087297 425.844453 
L 424.494309 412.567392 
L 424.90342 411.515202 
L 425.725794 411.515202 
L 426.145413 411.214576 
L 428.82262 411.216285 
L 429.226506 424.493346 
L 436.190351 424.524092 
L 436.545455 425.314942 
L 436.892146 426.358591 
L 438.364645 426.360299 
L 438.753383 426.678006 
L 440.015744 426.678006 
L 440.451794 427.364662 
L 440.877593 427.364662 
L 441.287758 426.573812 
L 441.689536 425.530163 
L 443.255225 425.528455 
L 443.660791 425.178294 
L 444.957946 425.178294 
L 445.429802 424.491638 
L 447.782799 424.491638 
L 448.215916 425.958896 
L 452.374008 425.958896 
L 452.869002 426.285143 
L 453.32404 426.285143 
L 453.772874 424.817885 
L 454.219146 425.004068 
L 456.551664 425.004068 
L 457.565573 425.536995 
L 458.07943 425.536995 
L 458.596295 425.210748 
L 459.503703 425.210748 
L 459.94273 425.024565 
L 462.212411 425.099722 
L 463.170329 424.618037 
L 464.141587 424.799096 
L 465.980864 424.817885 
L 466.414766 427.132361 
L 468.217997 427.057204 
L 469.760603 426.999129 
L 470.240891 426.999129 
L 470.708996 427.171647 
L 471.168816 429.043725 
L 471.618927 429.024936 
L 472.072094 426.71046 
L 474.886303 426.71046 
L 475.36743 426.536234 
L 475.855844 426.536234 
L 476.335276 426.363716 
L 476.790392 424.491638 
L 484.936534 424.493346 
L 485.326853 425.125343 
L 489.115992 425.123635 
L 489.478964 425.461839 
L 489.847836 424.829842 
L 493.395023 424.834966 
L 493.735637 424.496762 
L 497.865681 424.500179 
L 498.187177 425.094597 
L 499.262588 425.086057 
L 499.668643 425.313234 
L 500.533612 425.313234 
L 500.994539 425.880323 
L 502.999453 425.880323 
L 503.516702 425.285905 
L 504.053416 425.466963 
L 504.571813 425.466963 
L 505.124936 426.315889 
L 505.712829 426.607974 
L 506.325662 428.251166 
L 506.975706 428.251166 
L 507.661904 427.28609 
L 508.387896 427.02475 
L 509.151759 422.631517 
L 509.932417 423.084164 
L 510.724936 423.313049 
L 511.525703 422.947516 
L 512.324176 420.163313 
L 513.129747 418.024771 
L 513.971317 415.447248 
L 514.851176 411.622812 
L 516.739494 413.807472 
L 517.757386 412.572516 
L 518.829151 409.487687 
L 519.922963 411.72359 
L 522.140007 401.36738 
L 523.179597 403.215544 
L 524.194445 408.631929 
L 525.239414 409.072619 
L 526.311001 405.594927 
L 527.413991 402.873924 
L 528.56734 393.24878 
L 531.028275 378.068895 
L 532.305116 373.395533 
L 533.598594 374.167595 
L 536.148459 356.516089 
L 537.334079 341.944287 
L 538.50688 325.467954 
L 539.662626 313.502714 
L 540.794093 305.04591 
L 541.920241 302.820256 
L 543.057867 298.454352 
L 544.214971 291.205176 
L 545.373984 286.827315 
L 546.529882 281.183753 
L 547.687446 269.628456 
L 548.846495 271.891688 
L 550.034738 273.73302 
L 551.246497 277.400311 
L 552.455215 278.727505 
L 555.042401 278.727505 
L 556.444527 273.316244 
L 557.878851 270.930028 
L 559.328785 270.930028 
L 560.791848 271.275064 
L 562.256415 272.328962 
L 563.627376 271.606436 
L 564.966488 269.343203 
L 566.289303 269.654077 
L 567.603974 265.412865 
L 568.927163 264.085671 
L 570.267078 265.213017 
L 571.62864 265.213017 
L 573.000385 265.769858 
L 575.699869 265.769858 
L 577.012254 265.424822 
L 578.315676 264.370924 
L 580.903221 264.370924 
L 582.172817 262.218718 
L 584.657154 262.218718 
L 585.882432 261.091372 
L 587.126524 261.091372 
L 588.405542 260.536239 
L 589.673704 260.756584 
L 597.022892 260.756584 
L 598.301423 265.378703 
L 599.557943 265.90309 
L 600.786413 266.634157 
L 603.21067 266.649529 
L 604.39348 266.430893 
L 605.550878 266.430893 
L 606.706416 266.716145 
L 611.303916 266.716145 
L 612.46047 262.094027 
L 613.59183 261.56964 
L 614.692855 260.838573 
L 619.09494 260.824908 
L 620.226826 260.541364 
L 621.366789 262.053032 
L 624.789304 262.097443 
L 625.925217 263.542495 
L 631.394744 263.660354 
L 633.66657 263.998558 
L 634.815958 262.647451 
L 638.1251 262.874628 
L 639.191993 262.258004 
L 640.237091 262.493722 
L 641.267309 262.925871 
L 642.289698 263.069352 
L 644.341413 263.03519 
L 644.341413 263.03519 
" clip-path="url(#pc4ba19b392)" style="fill: none; stroke: #27ae60; stroke-width: 1.5; stroke-linecap: square"/>
   </g>
   <g id="line2d_70">
    <path d="M 44.903125 409.528682 
L 44.966457 291.605359 
L 45.245725 284.696176 
L 45.446111 282.277962 
L 45.737311 280.299423 
L 46.092395 278.65064 
L 46.535643 266.232753 
L 47.083777 262.343409 
L 48.483966 261.315133 
L 58.002686 261.308301 
L 59.349026 263.10693 
L 60.806762 262.312663 
L 62.337511 262.679905 
L 63.891564 265.394076 
L 67.024648 265.394076 
L 68.58932 265.879176 
L 73.090445 265.879176 
L 74.616136 267.223451 
L 76.173247 267.981847 
L 77.765701 266.945031 
L 79.384649 270.465425 
L 81.003597 277.803423 
L 82.6361 280.645701 
L 84.240672 283.006295 
L 85.858259 284.531629 
L 87.401959 284.046528 
L 88.989377 284.046528 
L 90.638016 289.240861 
L 94.055229 319.810727 
L 95.78613 330.426569 
L 97.52983 346.047144 
L 99.286342 354.874605 
L 101.056395 358.038006 
L 102.836992 357.655392 
L 104.572346 356.975568 
L 107.816659 360.538664 
L 109.420428 365.946509 
L 111.037748 373.233264 
L 112.696404 372.555148 
L 114.390483 370.401234 
L 116.091431 372.707169 
L 119.220928 368.472789 
L 120.598396 366.527263 
L 121.977019 374.669776 
L 126.092742 414.917737 
L 127.486518 425.396931 
L 128.902152 427.011086 
L 130.336599 425.981101 
L 131.776307 428.085481 
L 133.231802 425.053603 
L 134.693354 422.896273 
L 136.15175 425.330315 
L 137.542414 426.061382 
L 138.914583 421.611781 
L 140.298424 419.797779 
L 141.701873 415.121001 
L 143.156511 412.213815 
L 144.669903 405.270388 
L 146.207496 399.01191 
L 147.756949 395.373657 
L 149.309867 392.25979 
L 150.857854 398.385037 
L 152.266951 401.913972 
L 153.674616 396.436095 
L 155.11574 396.523208 
L 156.595603 396.237955 
L 158.119976 393.479374 
L 159.680565 393.457168 
L 161.259398 392.647529 
L 162.854664 390.435539 
L 164.455436 389.00586 
L 166.049868 386.894648 
L 167.550991 383.558729 
L 168.996671 377.792183 
L 170.461881 366.474312 
L 171.96807 360.63261 
L 173.504797 350.891315 
L 175.08535 342.309821 
L 176.711049 336.883187 
L 178.353492 326.967666 
L 180.000291 316.215176 
L 181.634676 311.152368 
L 183.276477 304.745285 
L 184.915865 300.271771 
L 186.471115 292.631439 
L 188.076503 285.435214 
L 189.715239 288.209168 
L 193.037916 318.661176 
L 194.703536 334.445728 
L 196.368085 342.943526 
L 202.967969 394.154073 
L 204.499329 396.801628 
L 206.064204 409.154608 
L 207.671795 417.688276 
L 209.335173 423.683707 
L 211.054802 417.821507 
L 212.808284 410.936156 
L 214.57305 408.807863 
L 216.199119 410.116268 
L 217.702372 410.661152 
L 219.168668 412.435868 
L 220.624669 415.204698 
L 222.089917 417.654114 
L 223.565905 413.933872 
L 225.047929 400.547492 
L 226.537572 394.726287 
L 228.032679 395.351451 
L 229.521129 400.749047 
L 231.013269 407.058769 
L 232.516485 408.269812 
L 234.013173 408.567021 
L 235.495331 408.544816 
L 236.936538 403.606699 
L 238.36505 399.96503 
L 239.794752 395.576921 
L 241.24283 400.51333 
L 242.727221 402.738984 
L 244.239789 401.871269 
L 245.775806 405.253307 
L 247.323679 406.044158 
L 248.879748 407.753966 
L 251.827546 398.856473 
L 253.268753 399.536296 
L 254.693599 399.531172 
L 256.105762 393.86028 
L 257.495917 392.4938 
L 260.268522 408.631929 
L 261.669452 412.13695 
L 263.102477 409.501352 
L 264.536213 408.850566 
L 265.927284 408.348385 
L 267.313609 412.422203 
L 268.725893 414.381394 
L 270.163535 411.13088 
L 271.622275 415.954554 
L 273.096468 425.323483 
L 274.580502 432.762258 
L 276.002557 434.349083 
L 277.40913 436.836077 
L 278.752338 441.309591 
L 280.042857 443.788044 
L 281.343974 444.753121 
L 282.634492 444.35855 
L 283.921291 445.135735 
L 285.19811 444.285101 
L 286.494103 448.632216 
L 287.812387 444.717251 
L 289.148112 441.403537 
L 291.831311 417.237337 
L 293.165651 409.210975 
L 294.498144 398.7779 
L 295.81415 392.143639 
L 297.120594 390.286935 
L 299.84117 382.31694 
L 301.2507 375.957683 
L 302.665333 365.353798 
L 304.045896 357.238615 
L 305.398055 350.406215 
L 306.720538 348.491435 
L 308.029104 347.143744 
L 309.328349 347.213776 
L 310.619443 347.499029 
L 311.913992 337.323877 
L 313.223462 322.391666 
L 314.555524 314.770124 
L 315.898938 311.596474 
L 317.238505 314.286731 
L 318.574393 314.293564 
L 319.914298 318.55869 
L 321.239076 320.048153 
L 323.858544 332.081718 
L 325.168273 330.069576 
L 326.485269 332.614645 
L 327.821205 341.91525 
L 329.172396 354.770411 
L 330.535059 364.486084 
L 331.905353 363.920702 
L 333.272136 362.084495 
L 334.618497 364.409219 
L 337.227138 362.055457 
L 338.518627 355.817476 
L 339.823585 356.721061 
L 341.140709 361.566941 
L 342.47427 360.567702 
L 343.819011 357.628062 
L 345.174428 348.940665 
L 346.542572 344.204104 
L 347.900077 341.597543 
L 349.241846 346.071057 
L 351.935743 358.664879 
L 353.320878 367.19513 
L 354.731135 370.73773 
L 357.58627 362.909507 
L 358.929889 360.630902 
L 360.270439 354.257981 
L 361.604721 350.090216 
L 362.928081 340.774239 
L 364.244087 335.805376 
L 365.550092 324.593407 
L 369.398339 280.785765 
L 373.331024 265.833058 
L 374.635163 264.768911 
L 375.923281 264.768911 
L 377.220339 265.054164 
L 378.530457 265.054164 
L 379.82075 265.933836 
L 384.950798 265.933836 
L 386.22324 264.411918 
L 387.505885 263.368269 
L 388.774248 263.368269 
L 390.033396 261.678958 
L 391.22003 261.678958 
L 392.367791 261.39883 
L 393.515694 261.39883 
L 394.665354 260.519158 
L 413.793686 260.514034 
L 413.988846 264.347011 
L 414.773916 264.347011 
L 414.887052 264.601517 
L 415.502837 264.601517 
L 415.817382 261.014507 
L 416.777144 261.014507 
L 416.933245 260.76 
L 417.78999 260.76 
L 418.058921 260.514034 
L 421.919485 260.514034 
L 422.39772 261.106745 
L 423.709756 261.106745 
L 424.13322 261.231436 
L 427.588357 261.231436 
L 428.154296 260.638725 
L 428.688737 260.638725 
L 429.215533 263.860202 
L 429.73645 263.860202 
L 430.268555 263.735511 
L 432.072358 263.735511 
L 432.738708 264.972175 
L 434.782024 264.972175 
L 436.02141 267.296899 
L 436.64741 268.989626 
L 437.883495 290.130781 
L 438.508407 302.300993 
L 439.163183 310.477668 
L 439.848017 315.810357 
L 440.551757 319.838057 
L 442.740575 346.079598 
L 443.50466 348.151523 
L 444.283575 348.827931 
L 445.023542 358.31301 
L 445.785206 362.735281 
L 446.562137 368.136293 
L 447.35033 365.89185 
L 448.147499 374.358902 
L 448.956253 380.243306 
L 449.776973 390.438956 
L 450.616792 393.961058 
L 451.381794 401.51086 
L 452.13591 402.861967 
L 452.888795 407.446508 
L 453.633389 418.873697 
L 454.372667 413.563214 
L 455.115232 401.837107 
L 455.867497 387.155987 
L 456.63962 385.962025 
L 457.398965 379.688174 
L 458.166481 377.025246 
L 458.95064 376.043088 
L 459.735981 375.687804 
L 460.52014 375.037018 
L 461.312624 381.037573 
L 462.116365 377.406152 
L 462.938118 369.41566 
L 463.780563 365.246188 
L 464.649744 372.727666 
L 465.528572 378.752135 
L 466.419226 380.854806 
L 467.313054 379.995632 
L 468.207072 375.486248 
L 470.003848 351.851268 
L 470.920435 337.95929 
L 471.85031 321.976598 
L 472.810886 319.59209 
L 474.788225 309.292247 
L 475.78901 299.141008 
L 476.789795 292.57678 
L 477.79116 282.25644 
L 478.773719 273.685194 
L 479.757517 272.450237 
L 480.747941 269.578921 
L 481.73081 269.326122 
L 482.707697 268.232938 
L 483.689182 267.822994 
L 484.681228 266.125143 
L 486.546117 266.125143 
L 487.466973 266.854501 
L 488.392904 265.506811 
L 489.329719 264.992672 
L 490.267517 264.053217 
L 491.215219 261.243393 
L 492.171341 262.063281 
L 493.148227 262.063281 
L 494.132687 262.339993 
L 498.227405 262.339993 
L 499.182852 261.610634 
L 503.061093 261.610634 
L 504.089784 260.790746 
L 505.134801 260.790746 
L 506.185007 260.514034 
L 511.179589 260.597731 
L 512.222137 261.002551 
L 516.632502 261.002551 
L 517.725278 261.190442 
L 518.753963 262.31608 
L 519.784359 262.314372 
L 520.830791 264.48195 
L 521.902886 266.318158 
L 524.134989 267.648768 
L 525.257864 267.243948 
L 526.392342 267.566779 
L 529.906444 267.588984 
L 531.126906 268.005761 
L 532.36066 272.894343 
L 533.641581 275.861313 
L 534.9925 273.693734 
L 536.414137 271.775538 
L 539.347045 270.444928 
L 540.837757 270.444928 
L 542.331732 270.122097 
L 546.735712 270.099892 
L 548.244986 275.289099 
L 549.795276 271.872899 
L 551.375735 277.280744 
L 552.956284 281.151299 
L 556.117149 290.487774 
L 557.701304 295.302908 
L 559.271053 305.64887 
L 560.767854 311.903932 
L 562.259995 314.544655 
L 563.742768 319.785106 
L 565.22558 329.324844 
L 566.708889 332.793995 
L 568.182712 345.980528 
L 569.641821 346.899486 
L 571.09438 359.214887 
L 572.537566 365.934552 
L 573.977721 368.353222 
L 575.362851 374.215421 
L 576.754044 373.427987 
L 578.157978 380.926546 
L 579.597155 395.214803 
L 581.086598 405.775986 
L 582.618665 409.742194 
L 584.165045 414.506085 
L 585.724986 412.932925 
L 587.283728 418.991556 
L 588.856469 419.392959 
L 590.373985 420.754315 
L 591.88934 420.267507 
L 593.403858 411.607439 
L 594.924827 402.048912 
L 596.438083 388.29529 
L 597.910061 371.366311 
L 599.387204 355.952416 
L 602.274016 328.419551 
L 603.678918 314.208159 
L 605.079458 298.855756 
L 606.458081 282.268396 
L 607.842991 269.618207 
L 609.238518 262.919039 
L 610.63742 260.901773 
L 613.442715 260.901773 
L 614.827517 262.051324 
L 616.212652 261.663585 
L 617.582342 261.663585 
L 618.926425 263.462215 
L 622.901081 263.462215 
L 624.242855 265.431654 
L 625.601986 265.431654 
L 626.963548 267.503579 
L 629.656231 267.503579 
L 630.981393 267.957934 
L 632.276446 267.957934 
L 633.567408 273.172763 
L 634.844915 271.374134 
L 636.117891 274.701513 
L 637.393728 278.643808 
L 638.669155 281.706431 
L 639.953211 279.736992 
L 641.244278 280.437313 
L 642.548075 278.365388 
L 645.038568 278.365388 
L 646.238627 277.663359 
L 647.415099 285.419841 
L 648.588625 280.205011 
L 649.767399 280.910457 
L 650.943739 277.583078 
L 652.136929 273.640783 
L 653.33226 277.765845 
L 654.402399 280.640577 
L 655.492983 282.270104 
L 656.629986 285.57357 
L 659.112116 285.57357 
L 660.335661 284.671693 
L 661.545209 276.915211 
L 662.75474 276.915211 
L 663.962145 276.209765 
L 666.295967 276.209765 
L 667.468872 270.574743 
L 668.638554 272.858473 
L 669.816536 270.528625 
L 671.013831 267.225159 
L 672.221904 269.28342 
L 673.426996 269.387614 
L 674.615317 270.349274 
L 678.102807 270.349274 
L 679.329374 278.302188 
L 680.609205 283.8296 
L 681.915747 288.501253 
L 683.280803 285.448878 
L 686.255596 285.448878 
L 687.795619 283.390618 
L 690.92598 283.265927 
L 692.50725 285.935687 
L 694.068497 293.070421 
L 695.543338 303.824619 
L 697.023125 312.440275 
L 697.023125 312.440275 
" clip-path="url(#pc4ba19b392)" style="fill: none; stroke: #e67e22; stroke-width: 1.5; stroke-linecap: square"/>
   </g>
  </g>
 </g>
 <defs>
  <clipPath id="pd36d82ac55">
   <rect x="44.903125" y="29.878125" width="652.12" height="206.93"/>
  </clipPath>
  <clipPath id="pc4ba19b392">
   <rect x="44.903125" y="251.108125" width="652.12" height="206.93"/>
  </clipPath>
 </defs>
</svg>
